<?xml version="1.0" encoding="utf-8"?>
<!-- Generator: Adobe Illustrator 28.0.0, SVG Export Plug-In . SVG Version: 6.00 Build 0)  -->
<svg version="1.1" id="Layer_1" xmlns="http://www.w3.org/2000/svg" xmlns:xlink="http://www.w3.org/1999/xlink" x="0px" y="0px"
	 viewBox="0 0 739.5 1052.5" style="enable-background:new 0 0 739.5 1052.5;" xml:space="preserve">
<style type="text/css">
	.st0{fill:#022CDE;}
	.st1{fill:#15A121;}
	.st2{fill:#E7EC13;}
	.st3{fill:#FACF04;}
	.st4{fill:#FA9A31;}
	.st5{fill:#25CEDB;}
	.st6{fill:#FFFFFF;}
</style>
<g id="Logo">
	<g>
		<g>
			<path class="st0" d="M329.4,150.1c-2.7,0-4.1-1.9-4.3-3.6c-0.1-1.3,0.3-2.5,1.3-3.7c0.8-0.9,1.7-1.5,2.5-1.9
				c0.3-0.2,0.7-0.4,0.8-0.6c2.5-2,4.8-4,7.3-6c3.2-2.7,6.5-5.4,9.7-8.2c2.7-2.3,5.1-4.3,6.8-7.2c1-1.9,1.5-4.8,0.2-6.6
				c-1.3-1.9-4.3-2.8-7.1-3.7l-1-0.3c-4.6-1.5-9.2-3.4-13.5-5.7c-1.8-1-3.9-2.2-5.3-4.3c-1.8-2.7-2.2-6.3-1-9.8
				c1.2-3.4,3.5-6.1,5.7-8.5c13.2-14.1,25.3-22.3,38.2-25.9l0.5-0.2c0.8-0.2,1.7-0.5,2.6-0.7c0.5-0.2,1-0.2,1.6-0.2
				c1.9,0,3,0.8,3.7,1.5c0.7,0.7,1.6,2,1.5,4.2c0,2.4-0.3,4.7-0.7,7c-0.3,1.5-0.8,3.3-2.3,4.6c-1.9,1.7-4.3,1.9-5.6,2
				c-10.1,0.7-15.4,3.5-16.7,8.9c-0.6,2.6,0.5,5.4,2.4,6.6c1.3,0.7,3,1,4.6,1.2c1.7,0.2,3.5,0.3,5.4,0.4c3.6,0.2,7.3,0.3,11,1.3
				c5,1.3,10.9,4.9,11.2,11.1c0.1,4.2-2.3,7.4-4.5,9.7c-5,5.4-10.8,9.7-16.5,13.8c-9.9,7.3-21,14.8-35,23.7
				C332.1,149.7,330.6,150,329.4,150.1L329.4,150.1z"/>
			<path d="M329.4,153.9c-4.7,0-7.7-3.5-8.1-6.9c-0.3-2.5,0.5-4.7,2.2-6.7c1.2-1.3,2.3-2.1,3.2-2.6c0.1-0.1,0.2-0.2,0.3-0.2l0.2-0.1
				c1.2-1,2.4-2,3.6-3c1.2-1,2.4-2,3.7-3c3-2.6,6.4-5.3,9.6-8.1l0.2-0.2c2.4-2.1,4.3-3.7,5.7-5.9c0.5-1.2,0.6-2.3,0.5-2.6
				c-0.6-0.8-3.2-1.6-4.9-2.2l-1.2-0.4c-4.7-1.5-9.5-3.5-14.1-5.9c-1.8-1-4.7-2.6-6.7-5.6c-2.4-3.6-3-8.6-1.4-13.2
				c1.5-4.2,4.2-7.3,6.6-9.9c13.6-14.5,26.3-23.1,39.9-27l1.1-0.3c0.6-0.2,1.4-0.4,2.2-0.5c0.9-0.2,1.8-0.2,2.4-0.2
				c2.5,0,4.7,0.9,6.4,2.6l0.1,0.1c1.7,1.9,2.5,4.2,2.5,6.8c0,2.4-0.3,4.8-0.8,7.7c-0.4,1.9-1.1,4.6-3.5,6.7
				c-2.6,2.4-5.9,2.8-7.4,2.9l-0.5,0.1c-12,0.8-12.9,4.6-13.2,6c-0.2,1.1,0.2,2.2,0.7,2.5c0.2,0.1,1,0.5,3,0.6
				c1.7,0.2,3.4,0.3,5.1,0.4c3.7,0.2,7.7,0.3,11.8,1.4c6.3,1.6,13.7,6.4,14,14.7c0.2,5.7-3,9.8-5.5,12.4c-5.1,5.5-11,9.9-17,14.3
				c-10,7.4-21.1,14.9-34.9,23.6C333.8,153.1,331.6,153.9,329.4,153.9L329.4,153.9z M332.2,143.1c-0.3,0.2-0.5,0.4-0.8,0.6
				c-0.1,0.1-0.2,0.1-0.2,0.2l-0.3,0.2c-0.5,0.3-1.1,0.7-1.6,1.2c-0.4,0.4-0.4,0.6-0.4,0.7c0,0,0,0.2,0.5,0.2c0.4,0,0.8-0.1,1-0.2
				l0.2-0.2l0.4-0.2c13.8-8.7,24.8-16.2,34.8-23.5c5.7-4.2,11.2-8.3,15.9-13.3c1.8-1.9,3.5-4.2,3.4-6.9c-0.2-4.3-5.3-6.8-8.3-7.5
				c-3.3-0.9-6.8-1-10.2-1.2c-2-0.1-3.8-0.2-5.6-0.4c-2.7-0.3-4.7-0.8-6.2-1.7c-3.4-2.1-5.1-6.6-4.2-10.8
				c2.5-10.7,15.6-11.6,20.1-11.9l0.2,0c1-0.1,2.3-0.2,3.1-1c0.6-0.5,0.9-1.2,1.1-2.6c0.5-2.4,0.7-4.3,0.7-6.2v-0.1
				c0-0.7-0.2-1.1-0.4-1.4c-0.2-0.2-0.5-0.3-1-0.3c-0.2,0-0.5,0-0.6,0l-0.4,0.1c-0.4,0.1-1,0.2-1.5,0.4c-0.2,0.1-0.5,0.1-0.7,0.2
				l-0.5,0.1c-12.2,3.5-23.8,11.4-36.5,24.8c-2,2.1-4,4.4-4.9,7.1c-0.8,2.3-0.6,4.8,0.5,6.4c0.9,1.4,2.3,2.2,3.9,3.1
				c4.2,2.2,8.6,4,12.8,5.4l1.2,0.4c3.2,1,6.9,2.2,8.9,5.1c2.3,3.2,1.5,7.7,0,10.5l-0.1,0.2c-2,3.4-4.6,5.6-7.4,8l-0.2,0.2
				c-3.3,2.8-6.6,5.6-9.7,8.2c-1.2,1-2.5,2-3.7,3C334.6,141.1,333.4,142.1,332.2,143.1L332.2,143.1z M330.4,146L330.4,146z"/>
		</g>
		<g>
			<path class="st1" d="M660,883.8c-10.8,0-21.9-1.3-32.9-4.1c-15.4-3.8-30.2-9.8-43.8-17.7c-1.1-0.6-1.8-1.8-1.9-3s0.5-2.5,1.5-3.2
				c3.6-2.6,8.1-3.9,13.8-3.9c3.4,0,7,0.5,10.1,0.9c11.2,1.4,22.6,2.2,33.9,2.2c6.5,0,13.1-0.2,19.6-0.7c5.6-0.5,11.8-1.1,15.8-4.7
				c2.2-2,3.2-4.2,2.8-6.5c-0.5-3.4-4-7.2-8.3-9.1c-3.3-1.4-6.7-2.5-10.3-3.8c-9-3-18.3-6.1-24.8-13.6c-5.1-6-8-14-9-25.3
				c-2.4-26.9-5.2-58.1-8.6-89c-0.4-3.6-0.9-7.2-1.4-10.9c-2.6-18.5-5.6-39.6,7.3-56.1c4.5-5.7,10-10.2,15.4-14.5
				c2.4-1.9,4.8-3.9,7.1-5.9c12.6-11.2,21.6-25.5,25.2-40.1c4-16,1.9-32.8-6-45.9c-8-13.5-21.8-23.1-35.1-32.2
				c-2.1-1.4-4.2-2.9-6.2-4.3c-4.5-3.2-9.2-6.9-11.5-12.3c-1.2-2.8-1.7-5.8-1.5-9.1c0.3-5.6,2.5-10.9,4.5-16.2
				c1-2.7,2.1-5.1,2.8-7.5c2.6-9.2,5.2-19.1,8-30.2c5.9-23.8,9.5-45.3,11-65.7c3.7-48-5.4-91.5-26.1-125.9
				c-2.8-4.5-5.1-8.2-7.5-11.5c-0.5-0.7-1.3-1.9-2.3-3.6l-1.1-1.8c-1-1.6-2.3-3.4-3.6-4.9c-0.8-1-1.5-1.9-2.2-2.9
				c-1-1.6-2.2-3.1-3.3-4.6c-0.5-0.7-1-1.4-1.6-2.2c-1.2-1.7-2.8-3.6-5.3-6.2c-1.1-1.2-2.1-2.4-3.1-3.6c-1.6-1.8-3-3.5-4.5-5
				c-8.3-8.2-16.7-16.4-24.9-24.5l-0.2-0.1c-14.9-14.6-34.1-26.1-52.7-37.2c-6.4-3.8-13-7.7-19.2-11.7c-24.4-15.5-50-32.3-73.5-52.7
				c-13.1-11.5-27-25.7-30.9-44.5c-0.3-1.6,0.5-3.3,1.9-4c0.5-0.3,1.1-0.5,1.7-0.5c1,0,1.9,0.4,2.7,1.1c20.2,20.9,39.4,37.5,58.5,51
				c20.2,14.3,42.6,26.4,64.2,38.2c25.7,13.9,52.2,28.4,75.7,46.7c33.7,26.2,61.5,61.1,80.3,101c17.9,38,25.8,80.7,22.8,123.4
				c-1.3,17.8-4.1,36.4-8.8,57c-1,4.3-2.4,8.8-3.8,13.5c-4.2,13.5-8.5,27.3-4,38.8c1.9,4.8,5.6,9.2,11.5,14.1c3.8,3.1,8,6,12.1,8.7
				c6.9,4.7,14.2,9.5,20,16c12.4,13.5,18,33.3,14.9,52.9c-2.8,17.6-12.4,34.6-27.1,47.8c-2.8,2.5-5.7,4.8-8.5,7.1
				c-8.6,6.8-16.6,13.3-20.2,22.6c-3.6,9.2-2.1,19.9-0.8,29.3l1,7.4c2.5,18.4,5.1,36.8,7.6,55.2c0.7,4.8,2.8,6.8,7.2,6.8
				c7.5,0,18.8-5.9,25.5-9.5c1.7-0.9,3.1-1.6,4.3-2.2c1.4-0.7,3.5-1.7,5.9-1.7c0.5,0,0.9,0.1,1.3,0.2c4.2,0.7,6.5,4.5,7.3,5.7
				c4.5,7.3,6.9,16.9,5.5,24.4c-0.1,0.6-0.5,1.2-1.1,1.8c-1.1,1-2.6,1.5-4.1,1.6c-11,0.8-21.6,4.4-31,10.2c-3.1,2-4.8,3.8-4.9,5.4
				c-0.2,2.5,2.8,5,5.4,6.7c8.4,5.6,17.6,9.6,27.5,11.9c2,0.5,4.8,1.1,6.6,3.6c1.5,1.9,1.6,4.2,1.8,5.7c0.7,7.7,1.3,15.6,1.1,23.6
				c-0.2,8.8-1.6,15.5-4.5,21.1c-3.3,6.5-8.9,12.4-17,17.6C699.2,878.6,680.5,883.8,660,883.8L660,883.8z"/>
			<path d="M660,887.6c-11.3,0-22.7-1.4-33.8-4.2c-15.8-3.9-30.8-10-44.7-18.1c-2.2-1.2-3.7-3.6-3.8-6.2c-0.2-2.5,1-4.9,3-6.5
				c4.3-3.2,9.6-4.7,16.2-4.7c3.7,0,7.4,0.5,10.7,0.9c11.1,1.4,22.3,2.1,33.3,2.1c6.8,0,13.2-0.2,19.3-0.7c5.4-0.4,10.5-1,13.5-3.7
				c1.8-1.6,1.7-2.6,1.6-3c-0.3-1.9-2.6-4.7-6.1-6.2c-2.5-1.1-5.3-2-8.2-3l-1.9-0.7c-9-3-19.2-6.3-26.4-14.7
				c-5.7-6.7-8.9-15.4-9.9-27.5c-2.5-28.4-5.3-58.9-8.5-89c-0.3-2.9-0.7-5.8-1.1-8.9l-0.3-1.9c-2.7-19.3-5.8-41.2,8.1-58.9
				c4.8-6.1,10.8-10.9,16-15.1c2.3-1.9,4.7-3.8,7-5.8c12-10.7,20.6-24.2,24-38.2c3.8-15.1,1.8-30.7-5.5-43
				c-7.7-12.9-21.1-22.1-34-31c-1.6-1.1-3.3-2.3-4.9-3.4l-1.3-1c-4.8-3.4-10.2-7.5-12.9-13.9c-1.4-3.3-2-7-1.8-10.8
				c0.3-5.9,2.4-11.3,4.5-16.6l0.3-0.7c0.2-0.6,0.4-1.1,0.7-1.6c0.8-2,1.5-3.8,2-5.5c2.6-9,5.2-18.9,7.9-30.1
				c5.9-23.8,9.5-45,10.9-65c3.6-47.1-5.3-89.9-25.6-123.6c-2.7-4.5-5.1-8.1-7.3-11.2c-0.8-1.1-1.6-2.3-2.5-3.8l-1.1-1.8
				c-0.9-1.5-2.1-3.1-3.3-4.5c-1-1.2-1.7-2.2-2.3-3.1c-0.7-1.1-1.5-2.1-2.2-3.2c-0.3-0.5-0.7-0.9-1-1.4c-0.3-0.4-0.5-0.7-0.8-1
				c-0.3-0.4-0.5-0.8-0.8-1.1c-1.1-1.6-2.6-3.4-4.9-5.8c-0.8-0.9-1.5-1.7-2.2-2.5c-0.3-0.4-0.7-0.8-1-1.1l-0.9-1.1
				c-1.2-1.3-2.2-2.6-3.4-3.7c-8-8-16-15.8-24.9-24.5l-0.2-0.2c-14.8-14.5-34.5-26.2-52-36.6c-7.8-4.6-13.9-8.3-19.3-11.7
				c-24.4-15.5-50.2-32.4-74-53.1c-13.6-11.9-28-26.7-32.1-46.6c-0.6-3.4,0.9-6.7,3.9-8.2c1.1-0.6,2.3-0.9,3.5-0.9
				c2,0,3.9,0.8,5.4,2.2c20.1,20.7,39.1,37.2,58,50.6c19.9,14,41.9,26,63.1,37.6l0.6,0.3c24.4,13.2,52.1,28.3,76.2,47
				c34.2,26.6,62.4,62,81.4,102.4c18.2,38.6,26.2,81.9,23.1,125.3c-1.3,18.2-4.2,37.1-8.9,57.6c-0.9,3.8-2,7.7-3.3,11.7l-0.7,2.2
				c-3.9,12.7-8,25.9-4,36.1c1.7,4.1,5,8.1,10.4,12.5c3.5,2.9,7.5,5.6,11.3,8.2l0.9,0.6c7,4.7,14.2,9.6,20.3,16.3
				c13.2,14.4,19.2,35.4,15.8,56c-3,18.5-13,36.3-28.3,50c-2.5,2.2-5.3,4.6-8.7,7.2c-8.1,6.5-15.8,12.6-19,20.9
				c-3.2,8.2-1.8,18.2-0.6,27.1l0,0.3l1,7.4l7.6,55.2c0.5,3.4,1.3,3.5,3.4,3.5c6.8,0,18.2-6.1,23.7-9l0.9-0.5
				c1.4-0.7,2.5-1.3,3.5-1.8l0.3-0.1c1.6-0.8,4.2-2,7.3-2c0.8,0,1.4,0.1,2,0.2c3.9,0.6,7.2,3.1,9.9,7.5c5.2,8.6,7.5,18.9,6.1,27.1
				c-0.2,1.5-1,2.8-2.3,4c-1.7,1.5-3.9,2.4-6.4,2.6c-10.3,0.8-20.4,4.1-29.2,9.7c-2,1.3-2.8,2.1-3,2.5c0.3,0.4,1.1,1.5,3.6,3.2
				c8,5.3,16.9,9.2,26.2,11.4c2.1,0.5,6,1.3,8.8,5c2.1,2.7,2.3,5.7,2.5,7.4l0,0.2c0.6,7,1.4,15.7,1.1,24.1
				c-0.2,9.4-1.8,16.6-4.9,22.7c-3.7,7.2-9.7,13.5-18.4,19.1C700.9,882.1,681.4,887.6,660,887.6L660,887.6z M585.3,858.7
				c13.3,7.7,27.6,13.5,42.7,17.3c10.6,2.6,21.3,4,32,4c19.9,0,37.9-5,52-14.5c7.6-4.9,12.7-10.2,15.8-16.2c2.5-5,3.8-11.2,4-19.4
				c0.2-8-0.5-16-1.1-23.2l0-0.2c-0.1-1.2-0.2-2.6-1-3.5c-1-1.3-2.6-1.8-4.4-2.2c-10.3-2.4-19.9-6.6-28.8-12.5
				c-1.9-1.3-7.5-5.1-7.1-10.2c0.3-3.8,4-6.6,6.7-8.3c9.9-6.2,21.2-9.9,32.7-10.8c0.8-0.1,1.4-0.3,1.8-0.7c1-6.3-1-14.6-5.1-21.3
				c-0.5-0.9-2.2-3.6-4.6-4c-0.3,0-0.6-0.1-0.7-0.1c-1.4,0-2.9,0.7-4,1.2l-0.2,0.1c-0.9,0.5-2,1-3.3,1.7l-0.9,0.5
				c-9.6,5.1-19.6,9.9-27.2,9.9c-6.3,0-10-3.4-10.9-10.2l-8.7-62.9c-1.3-9.8-2.8-21,1.1-30.9c4-10.2,12.8-17.3,21.3-24.2
				c3.2-2.5,5.9-4.8,8.3-6.9c14-12.6,23.2-28.7,25.9-45.5c3-18.4-2.3-37-13.9-49.7c-5.5-6-12.3-10.6-18.9-15.1l-0.9-0.6
				c-4-2.7-8.1-5.5-11.9-8.6c-6.4-5.2-10.5-10.2-12.7-15.6c-5-12.7-0.5-27.2,3.8-41.2l0.7-2.1c1.2-3.9,2.3-7.6,3.1-11.2
				c4.6-20.2,7.4-38.6,8.7-56.5c2.9-42.1-4.8-84.1-22.4-121.5c-18.5-39.3-45.8-73.8-79.1-99.6c-23.6-18.4-51-33.2-75.2-46.3
				l-0.7-0.4c-21.5-11.7-43.7-23.8-63.9-38.1c-19.2-13.5-38.5-30.3-58.8-51.2c3.7,17.5,17,31.1,29.6,42.1c23.4,20.3,48.9,37,73,52.4
				c5.3,3.3,11.4,7.1,19.1,11.6c17.8,10.6,38,22.6,53.4,37.8l0.2,0.2c8.8,8.7,16.8,16.5,24.8,24.5c1.3,1.3,2.5,2.7,3.8,4.1l0.9,1
				c0.4,0.4,0.7,0.8,1,1.2c0.7,0.8,1.3,1.5,2,2.2c2.6,2.8,4.3,4.8,5.6,6.7c0.2,0.3,0.5,0.7,0.7,1c0.3,0.4,0.6,0.8,0.8,1.2
				c0.3,0.4,0.6,0.9,1,1.3c0.8,1.1,1.6,2.2,2.4,3.4c0.5,0.8,1.2,1.6,2,2.7c1.3,1.7,2.8,3.5,3.9,5.3l1.1,1.7c0.8,1.4,1.6,2.5,2.2,3.4
				c2.3,3.2,4.8,6.9,7.7,11.7c21.2,35.2,30.4,79.5,26.7,128.2c-1.5,20.4-5.1,42.1-11.1,66.3c-2.8,11.3-5.4,21.3-8,30.4
				c-0.6,2.1-1.4,4.1-2.2,6.3c-0.2,0.5-0.4,1.1-0.6,1.6l-0.3,0.7c-1.8,4.7-3.7,9.6-4,14.3c-0.2,2.7,0.2,5.1,1.2,7.4
				c1.9,4.6,6.1,7.8,10.2,10.7l1.3,1c1.6,1.1,3.2,2.2,4.8,3.3c13,8.9,27.8,19.1,36.3,33.4c8.3,14,10.7,31.7,6.4,48.7
				c-3.8,15.4-13.2,30.3-26.4,42.1c-2.4,2.1-4.8,4-7.2,6c-5,4-10.6,8.5-14.9,14c-11.8,15.1-9,35.3-6.5,53.1l0.3,2
				c0.4,3.1,0.8,6.1,1.2,9.1c3.2,30.1,6,60.6,8.6,89.1c0.9,10.4,3.5,17.8,8.1,23.2c5.8,6.8,14.6,9.7,23.1,12.5l1.9,0.7
				c3,1,5.9,2,8.8,3.3c5.6,2.5,9.9,7.3,10.6,12c0.4,2.5,0,6.2-4,9.9c-4.8,4.3-11.5,5.1-18,5.7c-6.2,0.5-12.9,0.8-19.9,0.8
				c-11.3,0-22.9-0.7-34.3-2.2c-3-0.4-6.5-0.9-9.6-0.9C591.9,855.6,588.2,856.6,585.3,858.7L585.3,858.7z M697,778.9L697,778.9
				L697,778.9z"/>
		</g>
		<g>
			<path class="st0" d="M68.1,707.3c-0.7,0-1.3-0.2-1.9-0.6c-1.3-0.7-1.9-2.2-1.7-3.7l4.1-29.9c1.3-9.5,2.8-20.2-0.8-29.3
				c-3.6-9.2-11.7-15.7-20.2-22.6c-2.8-2.3-5.7-4.6-8.5-7.1C24.4,601,14.7,584,12,566.4c-3.1-19.5,2.5-39.3,14.9-52.9
				c5.9-6.4,13.1-11.3,20-16c4.1-2.8,8.3-5.7,12.1-8.7c6-4.8,9.6-9.3,11.5-14.1c4.5-11.4,0.2-25.3-3.9-38.8
				c-1.5-4.7-2.8-9.2-3.8-13.5c-4.7-20.6-7.6-39.2-8.8-57c-3-42.8,4.9-85.5,22.8-123.4c18.8-39.9,46.5-74.8,80.3-101
				c23.5-18.3,50.1-32.7,75.7-46.7c21.6-11.8,43.9-23.9,64.2-38.2c19.1-13.5,38.3-30.1,58.5-51c0.7-0.7,1.7-1.1,2.7-1.1
				c0.6,0,1.2,0.2,1.7,0.4c1.5,0.7,2.2,2.4,1.9,4C358,27.3,344.1,41.5,331,52.9c-23.5,20.5-49.1,37.3-73.5,52.7
				c-6.2,3.9-12.8,7.9-19.2,11.7c-18.6,11.1-37.8,22.6-52.7,37.2c-8.2,8-16.7,16.4-24.9,24.6c-1.6,1.5-3,3.2-4.5,5
				c-1,1.2-2,2.4-3.1,3.5c-2.5,2.6-4.1,4.6-5.3,6.2c-0.6,0.8-1.1,1.5-1.6,2.2c-1.1,1.6-2.2,3.1-3.4,4.6c-0.6,0.9-1.3,1.9-2.2,2.9
				c-1.3,1.6-2.5,3.3-3.5,4.9l-1.1,1.9c-1,1.7-1.8,2.8-2.3,3.6c-2.4,3.3-4.8,6.9-7.5,11.5c-20.7,34.4-29.7,77.9-26.1,125.9
				c1.6,20.4,5.1,41.9,11,65.7c2.8,11.2,5.4,21.1,8,30.2c0.7,2.3,1.6,4.8,2.8,7.5c2.1,5.2,4.2,10.6,4.5,16.2
				c0.2,3.3-0.4,6.3-1.5,9.1c-2.3,5.4-7,9.1-11.5,12.3c-2.1,1.4-4.1,2.9-6.2,4.3c-13.3,9.2-27,18.8-35.1,32.2
				c-7.8,13.1-10,29.8-6,45.9c3.7,14.7,12.7,29,25.2,40.1c2.2,2,4.7,4,7.1,5.9c5.4,4.4,10.9,8.9,15.4,14.5
				c6.8,8.7,9.9,19.4,9.6,33.6c0,1.2-0.6,2.3-1.6,3l-51.4,35C69.6,707.1,68.8,707.3,68.1,707.3L68.1,707.3z"/>
			<path d="M68.1,711.1c-1.5,0-2.9-0.4-4.1-1.2c-2.5-1.6-3.8-4.5-3.4-7.4l4.1-29.8c1.2-8.5,2.7-19-0.6-27.4
				c-3.2-8.2-10.7-14.3-18.7-20.8l-1.9-1.5c-2.3-1.9-4.7-3.8-7-5.9C21.1,603.2,11.1,585.4,8.2,567c-3.3-20.7,2.6-41.6,15.9-56
				c6.2-6.8,13.9-12,20.7-16.6c4-2.7,8.2-5.5,11.9-8.5c5.4-4.4,8.7-8.4,10.4-12.5c4-10.1-0.1-23.4-4-36.2c-1.4-4.4-2.8-9.1-3.9-13.8
				c-4.8-21-7.7-39.9-8.9-57.6c-3-43.4,5-86.7,23.1-125.3c19-40.4,47.1-75.8,81.4-102.4c23.1-18,49.1-32.2,74.1-45.9l2.7-1.5
				C252.9,79,274.9,67,294.8,53c18.9-13.3,37.9-29.9,58-50.5c1.5-1.5,3.4-2.3,5.4-2.3c1.2,0,2.5,0.3,3.5,0.9
				c2.9,1.5,4.5,4.8,3.9,8.1c-4,20-18.5,34.8-32.1,46.7c-24,21-50.8,38.4-74,53.1c-5.4,3.4-11.5,7.1-19.3,11.8
				c-17.4,10.4-37.2,22.2-52,36.7c-8.5,8.3-16.8,16.4-24.9,24.6c-1.2,1.1-2.3,2.4-3.4,3.7l-0.9,1c-1,1.2-2.1,2.4-3.2,3.6
				c-2.1,2.2-3.7,4.1-5,5.9c-0.2,0.3-0.5,0.6-0.7,1c-0.3,0.4-0.6,0.8-0.9,1.2c-1.1,1.6-2.2,3.1-3.4,4.6c-0.6,0.9-1.4,1.9-2.3,3.1
				c-1.2,1.6-2.4,3.1-3.2,4.5l-1.1,1.9c-0.9,1.5-1.7,2.8-2.4,3.8c-2.3,3.2-4.6,6.7-7.4,11.3c-20.2,33.6-29.1,76.4-25.6,123.6
				c1.6,20.4,5.1,41.7,10.9,65c2.6,10.8,5.2,20.6,7.9,30.1c0.6,1.9,1.4,4.1,2.6,7.1l0.1,0.2c2.2,5.5,4.4,11.1,4.7,17.3
				c0.2,3.8-0.4,7.4-1.8,10.7c-2.7,6.5-8.1,10.6-12.9,14c-1.1,0.7-2.1,1.4-3.1,2.1c-1,0.7-2.1,1.5-3.2,2.2
				c-12.9,8.9-26.3,18.2-34,31c-7.3,12.2-9.3,27.9-5.5,43c3.6,14,12.1,27.6,24.1,38.2c1.8,1.6,3.7,3.2,5.6,4.7l2.2,1.8
				c5.3,4.3,10.7,8.8,15.2,14.5c7.4,9.5,10.7,20.9,10.4,36c0,2.4-1.3,4.8-3.4,6.1l-51.5,35C71.1,710.8,69.6,711.1,68.1,711.1
				L68.1,711.1z M358,8c-20.3,20.9-39.6,37.7-58.8,51.2c-20.2,14.3-42.4,26.4-63.9,38.1l-2.7,1.5c-24.8,13.6-50.5,27.6-73.1,45.2
				c-33.3,25.9-60.7,60.3-79.1,99.6C62.7,281,54.9,323,57.9,365.1c1.2,17.4,4,35.8,8.7,56.5c1,4.4,2.4,8.9,3.7,13.2
				c4.4,14.2,8.9,28.7,3.8,41.4c-2.2,5.4-6.2,10.4-12.7,15.6c-4,3.2-8.3,6.2-12.4,8.9c-6.7,4.6-13.7,9.3-19.4,15.4
				c-11.7,12.7-16.9,31.3-13.9,49.7c2.6,16.7,11.8,32.9,25.9,45.6c2.2,1.9,4.5,3.8,6.8,5.7l1.8,1.5c8.8,7.1,17.2,13.8,21.1,23.9
				c4,10.3,2.4,21.9,1,31.2l-4.1,29.8l51.2-34.8c0.2-13.3-2.5-23.1-8.8-31c-4-5-9.1-9.2-14-13.3l-2.1-1.7c-2-1.6-4-3.2-5.9-4.9
				c-13.1-11.6-22.5-26.5-26.4-42c-4.3-17-1.9-34.8,6.4-48.8c8.6-14.3,22.7-24,36.2-33.4c1.1-0.7,2.1-1.4,3.1-2.1
				c1-0.7,2.1-1.5,3.2-2.2c4.1-2.9,8.2-6.1,10.2-10.6c0.9-2.2,1.3-4.7,1.2-7.4c-0.2-4.9-2.2-9.9-4.2-14.8l-0.1-0.1
				c-1.3-3.2-2.2-5.7-2.9-7.9c-2.7-9.6-5.3-19.5-8-30.4c-5.9-23.8-9.5-45.4-11.1-66.3c-3.6-48.8,5.6-93.1,26.7-128.2
				c2.9-4.7,5.3-8.5,7.7-11.7c0.6-0.8,1.3-2,2.1-3.3l1.1-1.8c1.1-1.8,2.4-3.6,3.8-5.3c0.9-1.1,1.5-1.9,2-2.7l0.1-0.2
				c1.1-1.5,2.2-3,3.3-4.5c0.3-0.4,0.6-0.9,1-1.4c0.2-0.3,0.4-0.6,0.6-0.9c1.5-2,3.3-4.2,5.6-6.6c1-1.1,2-2.2,2.9-3.3l1-1.1
				c1.3-1.5,2.5-2.9,3.9-4.2c8.1-8.1,16.4-16.2,24.9-24.5c15.5-15.1,35.6-27.2,53.4-37.8c7.7-4.6,13.8-8.3,19.1-11.6
				c22.9-14.5,49.4-31.7,73-52.4C341,39.1,354.4,25.5,358,8L358,8z M119.4,668.8C119.4,668.8,119.4,668.8,119.4,668.8
				C119.4,668.8,119.4,668.8,119.4,668.8z"/>
		</g>
		<g>
			<path class="st2" d="M566.6,523.1c0-2.6-2.7-4.3-5-3.2c0,0,0,0,0,0c-19.3,8.9-30.5,27.8-40.8,45.3c-5.5,9.2-10.4,18.6-17.8,26.6
				c-7.5,8-16.3,14.8-25.4,21c-11,7.4-22.5,14.2-33.7,21.3c-5.6,3.7-10.9,7.5-16.5,11.2c-4.3,3-8.9,5.7-11.5,10.6
				c-4.3,8.2-1.9,19.3-1.6,28.1c0.4,10.4,1,20.8,1,31.2c0.1,3.9,1.9,5.4,5.8,5.4c15.4-0.1,30.8-0.2,46.2-0.3
				c9.5-0.1,26.2-3.2,27.2,10.4c1.7,23.2,0.7,47.2-1.3,70.4c-0.2,2.4-0.5,4.9-1.9,6.8c-2.4,3.1-6.9,3.4-10.8,3.4
				c-26.6,0.1-53.2,0.2-79.7,0.1c-3.4,0-7.3-0.2-9.7-2.6c-2.5-2.5-2.5-6.6-2.4-10.2c0.5-8.5,0.8-17,1.2-25.5
				c0.3-6.5,1.7-14.3,1.2-21c-0.1-1.6-1.4-2.8-3-3c-10.9-0.9-21.9,0-32.8,0c-12.7,0-25.3-0.2-38-0.2c-3.4,0-7.2-0.2-9.5-2.8
				c-4.7-5.3-3.3-18-3.6-24.6c-0.8-14.8-0.1-29.7,0.3-44.5c0-1.7,0.1-14.6,0.1-22.2c0-2.8-3.2-4.3-5.3-2.6c-1.2,1-2.3,2-3.5,2.8
				c-3.2,2.3-6.4,4.6-9.7,6.8c-6.3,4.2-13,8.1-20.3,10.6c-15,5-31.3,5.8-45.4,13.2c-13.7,7.2-24.5,24-17.9,38
				c7.4,15.9,28.4,19,31.2,38.3c1.4,10-1.2,21.5-3.7,31.3c-2.6,10.1-6.6,20-12.4,28.7c-14.2,21.5-36.4,29.6-61.1,31.5
				c-14.2,1.1-28.8,0.9-42.6-2.9c-26.8-7.3-48.3-31-47.6-59.6c0.3-13.5,7.2-30.2,22-32.8c13.3-2.4,24.8,7.8,33.7,18.7
				c1.7,2.1,5.1,1.4,5.8-1.3c1.9-7.5,3.2-15.2,2.6-22.9c-0.4-6.1-2.5-12.3-6.5-16.9c-3.3-3.8-7.7-6.4-11.5-9.5
				c-4.2-3.3-8.9-8.6-7.2-14.3c1.3-4.5,6-7.1,10-9.5c25.7-15.4,42.6-43.6,46.1-73.1c0.8-6.8,1.4-13.8,1-20.6
				c-0.2-4.2-0.4-8.6-1.5-12.6c-0.2-0.9-1.3-5.1-2.7-5c-1.6,0.2-1.4,6-1.6,7.4c-1.6,15.3-3.9,31.6-13.6,44.2
				c-9,11.5-22.5,18.5-34.8,25.9c-19.1,11.6-39,21.9-58.2,33.3c-20.5,12.2-47.3,29-46.2,56.5c0.3,8.2,4.2,16.5,11.2,20.8
				c5.3,3.2,11.6,4,17.4,6.2c10.7,4.3,10.8,12.6,11,22.7c0.7,33.7,23.5,64.6,53.5,79.9s66,16.1,98.5,7.4c5.6-1.5,11.2-3.3,16.6-5.4
				c19.4-7.5,37.4-18.8,51.5-34.2c6.9-7.5,12.9-16.1,17.3-25.3c3.9-8.2,9.5-15.9,19.6-15.7c13.3,0.2,26.6,0.4,40,0.5
				c2.6,0.1,5.3,0.1,7.7,1c4.2,1.6,5.6,5.5,6,9.6c1.4,13,1.1,26.1-1,39c-0.3,2,1.2,3.8,3.2,3.8c29.2,0.1,58.5-0.1,87.7-0.1
				c26.7-0.1,53.5-0.1,80.2-0.2c1.8,0,23.8-0.7,35.3-0.7c3.9,0,7-3.1,7-7L566.6,523.1L566.6,523.1z M490.1,690.4
				c-14.4,0-26-9.1-26-20.2s11.7-20.2,26-20.2s26,9.1,26,20.2C516.1,681.3,504.5,690.4,490.1,690.4z"/>
			<path d="M154.2,905c-21.3,0-41.4-4.5-58.9-13.4c-33.1-16.8-55-49.5-55.6-83.2c-0.2-10.8-0.7-16-8.6-19.2c-2-0.8-4.2-1.4-6.4-2.1
				c-3.8-1.1-7.8-2.2-11.5-4.5c-7.7-4.8-12.7-13.9-13.1-24c-1.2-30.6,29.7-49,48.1-59.9c9.1-5.4,18.5-10.7,27.5-15.7
				c10.1-5.7,20.6-11.5,30.7-17.6c1.8-1.1,3.6-2.2,5.4-3.2c10.3-6.1,21.1-12.5,28.3-21.8c9.1-11.7,11.3-27.3,12.8-42.2
				c0-0.2,0-0.6,0-1c0.1-3.6,0.3-9.1,4.8-9.7h0.1c4.7-0.5,6.2,5.3,6.8,7.8c1.1,4,1.3,8.2,1.6,12.3l0.1,1c0.4,7.5-0.3,15-1.1,21.3
				c-3.7,31.3-22.1,60.4-47.9,75.9l-0.8,0.5c-3.3,2-6.6,4-7.5,6.8c-1.2,3.9,3.2,8.1,5.9,10.2c1.2,0.9,2.3,1.8,3.6,2.7
				c2.9,2.1,5.9,4.4,8.5,7.3c4.2,4.8,6.9,11.6,7.4,19.1c0.6,7-0.2,14.4-2.7,24.1c-0.7,2.6-2.7,4.6-5.3,5.2c-2.7,0.6-5.4-0.3-7.1-2.4
				c-11.1-13.5-20.7-19-30.1-17.3c-12,2.2-18.6,16.3-18.9,29.2c-0.7,25.1,18.2,48.6,44.8,55.9c11.6,3.2,24.7,4.1,41.3,2.8
				c27.3-2.1,46.3-11.8,58.2-29.8c5.2-7.9,9.2-17.2,11.9-27.5c2.6-10.2,4.9-20.8,3.6-29.8c-1.4-9.3-7.7-14.2-15-19.9
				c-6-4.7-12.3-9.5-15.9-17.3c-7.6-16.2,4.3-34.9,19.6-43c9.1-4.8,19.1-7,28.7-9.1c5.8-1.3,11.7-2.6,17.3-4.4
				c5.9-2,12.1-5.2,19.4-10.1c3.2-2.1,6.5-4.5,9.6-6.7c0.7-0.5,1.4-1.1,2.2-1.7c0.4-0.3,0.8-0.6,1.2-1c2.1-1.7,5-2,7.5-0.8
				c2.5,1.2,4,3.7,4,6.4c0,9.2-0.1,20.6-0.1,22.2c-0.1,2.8-0.2,5.7-0.2,8.5c-0.4,11.7-0.7,23.8-0.1,35.7c0.1,1.6,0.1,3.5,0.1,5.4
				c0,5.5,0,13.8,2.6,16.8c1.1,1.3,4,1.5,6.6,1.5c4.3,0,8.5,0.1,12.7,0.1c8.3,0.1,16.8,0.1,25.2,0.1c3.6,0,7.3-0.1,10.9-0.2
				c7.2-0.2,14.8-0.4,22.2,0.2c3.4,0.3,6.2,3.1,6.5,6.5c0.4,4.7-0.1,9.7-0.6,14.5c-0.2,2.5-0.5,4.8-0.6,6.9
				c-0.4,8.3-0.7,17-1.2,25.5c-0.1,2.8-0.1,5.9,1.3,7.3c1.3,1.4,4.3,1.5,7,1.5c21.2,0.1,42.8,0,63.7,0l16,0c3.3,0,6.5-0.2,7.8-1.9
				c0.8-1,1-2.8,1.2-4.8c2.3-26.8,2.7-49.6,1.3-69.7c-0.5-6.8-6.2-7.7-18.7-7c-1.6,0.1-3.2,0.2-4.7,0.2c-7.7,0-15.4,0.1-23.1,0.2
				c-7.7,0.1-15.4,0.1-23.1,0.2c-6,0-9.4-3.2-9.6-9.1v-0.2c0-7.1-0.3-14.3-0.6-21.4c-0.1-3.2-0.3-6.4-0.4-9.7
				c-0.1-1.9-0.2-4-0.4-6.2c-0.6-7.8-1.4-16.6,2.5-23.9c2.7-5.2,7.3-8.2,11.3-11c0.5-0.3,0.9-0.6,1.4-1c2.2-1.5,4.4-3,6.5-4.5
				c3.2-2.2,6.6-4.6,10-6.8c4.2-2.6,8.4-5.2,12.4-7.8c7-4.3,14.3-8.8,21.2-13.5c10.5-7.2,18.4-13.7,24.7-20.4
				c5.8-6.2,10-13.3,14.3-20.9c1-1.7,2-3.4,3-5c10.4-17.5,22.1-37.4,42.4-46.8h0c2.3-1.1,4.9-1,7.1,0.4c2.2,1.3,3.5,3.7,3.5,6.2
				l0.1,337.9c0,6-4.8,10.8-10.8,10.8c-8.1,0-21.2,0.4-29.1,0.5c-3.8,0.1-5.7,0.1-6.2,0.1c-13.3,0-26.5,0-39.8,0.1
				c-13.5,0-26.9,0-40.4,0.1c-11.4,0-22.9,0-34.3,0.1c-17.5,0-35.6,0.1-53.4,0c-2.1,0-4.1-0.9-5.4-2.5c-1.3-1.6-1.9-3.7-1.6-5.7
				c2-12.5,2.3-25.2,0.9-37.9c-0.5-4.7-2.2-5.9-3.6-6.4c-1.7-0.7-3.8-0.7-5.9-0.8l-0.6,0c-13-0.1-26.4-0.3-39.9-0.5
				c-6.6,0-11.6,4.1-16.1,13.5c-4.5,9.4-10.5,18.2-17.9,26.3c-13.6,14.8-31.9,27-52.9,35.2c-5.9,2.2-11.6,4.1-17,5.6
				C182.2,903.1,167.9,905,154.2,905L154.2,905z M158.7,612.9c-1.9,11.5-5.3,22.7-12.6,32.2c-8.2,10.5-19.5,17.2-30.5,23.7
				c-1.8,1.1-3.6,2.1-5.3,3.2c-10.2,6.2-20.7,12.1-30.9,17.7c-9,5-18.3,10.2-27.4,15.6c-23,13.7-45.3,29-44.4,53.1
				c0.3,7.5,3.9,14.3,9.4,17.8c2.8,1.7,6.1,2.6,9.6,3.6c2.4,0.7,4.8,1.4,7.2,2.3c13,5.2,13.2,15.8,13.4,26.1v0.1
				c0.6,30.5,21.3,61.2,51.4,76.5c27.1,13.8,61.2,16.3,95.8,7.2c5.2-1.4,10.6-3.2,16.2-5.3c19.9-7.7,37.3-19.2,50.1-33.2
				c6.9-7.5,12.5-15.7,16.6-24.4c2.1-4.5,8.6-18.1,23.1-17.9c13.5,0.2,27,0.4,40,0.5l0.6,0c2.6,0.1,5.6,0.2,8.5,1.3
				c4.9,1.8,7.7,6.1,8.4,12.8c1.5,13.2,1.1,26.4-0.9,39.3c17.6,0.1,35.5,0,52.8,0c11.5,0,22.9-0.1,34.3-0.1
				c13.4,0,26.9-0.1,40.4-0.1c13.3,0,26.5,0,39.8-0.1c0.5,0,3-0.1,6.1-0.1c7.9-0.2,21.1-0.5,29.3-0.5c1.7,0,3.2-1.4,3.2-3.2
				l-0.1-337.4c-17.9,8.5-28.5,26.3-38.7,43.6c-1,1.7-2,3.4-3,5.1c-4.4,7.6-9,15.4-15.4,22.2c-6.7,7.2-15,14-26,21.5
				c-7.1,4.8-14.4,9.3-21.5,13.7c-4,2.5-8.2,5.1-12.3,7.7c-3.3,2.1-6.6,4.4-9.8,6.6c-2.2,1.5-4.4,3-6.6,4.5c-0.5,0.3-0.9,0.6-1.4,1
				c-3.6,2.4-7,4.8-8.8,8.2c-2.8,5.3-2.2,12.7-1.6,19.7c0.2,2.3,0.4,4.4,0.4,6.5c0.1,3.2,0.3,6.4,0.4,9.6c0.3,7.1,0.6,14.4,0.6,21.7
				c0,1.1,0.3,1.4,0.3,1.5l0,0c0,0,0.4,0.2,1.7,0.2c7.7,0,15.4-0.1,23.1-0.2c7.7-0.1,15.4-0.1,23.1-0.2c1.3,0,2.8-0.1,4.4-0.2
				c9.6-0.5,25.6-1.2,26.7,14.1c1.5,20.5,1.1,43.7-1.3,71c-0.2,2.4-0.6,5.9-2.7,8.8c-3.8,4.9-10.6,4.9-13.8,4.9l-16,0
				c-20.9,0.1-42.5,0.1-63.7,0c-3.3,0-8.8,0-12.4-3.8c-3.8-3.8-3.6-9.6-3.5-13c0.5-8.5,0.8-17.1,1.2-25.5c0.1-2.4,0.4-4.9,0.6-7.3
				c0.4-4.3,0.9-8.7,0.6-12.6c-6.9-0.5-14-0.3-20.9-0.1c-3.6,0.1-7.4,0.2-11.1,0.2c-8.4,0-17-0.1-25.3-0.1c-4.2,0-8.5-0.1-12.7-0.1
				h0c-3,0-8.7,0-12.3-4c-4.6-5.2-4.6-14.5-4.5-21.9c0-1.9,0-3.6-0.1-5c-0.7-12.1-0.3-24.4,0-36.3c0.1-2.8,0.2-5.7,0.2-8.5
				c0-1.2,0.1-8.6,0.1-21c-0.1,0-0.1,0.1-0.2,0.2c-0.8,0.7-1.7,1.4-2.6,2c-3.1,2.3-6.4,4.6-9.8,6.8c-7.9,5.3-14.6,8.8-21.2,11
				c-6,2-12.2,3.3-18.1,4.7c-9.5,2.1-18.5,4-26.7,8.4c-12.3,6.5-21.7,21.3-16.3,33c2.9,6.1,8.1,10.2,13.7,14.5
				c7.5,5.8,16,12.4,17.9,24.8c1.4,10.3-1,21.9-3.8,32.8c-2.9,11.2-7.2,21.2-12.9,29.8c-13.3,20.1-34.2,31-64,33.2
				c-17.5,1.4-31.4,0.4-43.9-3c-14.1-3.8-26.9-12-36-23c-9.8-11.8-14.7-25.7-14.3-40.4c0.3-15.4,8.4-33.5,25.2-36.5
				c12.1-2.2,24.1,4.1,36.7,19.2c2-8.3,2.7-14.7,2.2-20.6c-0.4-5.9-2.4-11.1-5.6-14.7c-2-2.3-4.5-4.2-7.2-6.2
				c-1.3-0.9-2.6-1.9-3.8-2.9c-9.3-7.4-9.8-14.1-8.5-18.4c1.7-5.7,6.8-8.7,10.8-11.2l0.8-0.5c23.9-14.3,40.8-41.3,44.3-70.3
				C158.2,624.1,158.7,618.5,158.7,612.9L158.7,612.9z M490.1,694.2c-16.4,0-29.8-10.8-29.8-24.1s13.4-24.1,29.8-24.1
				s29.8,10.8,29.8,24.1c0,5.5-2.3,10.8-6.5,15.1C507.7,690.9,499.2,694.2,490.1,694.2L490.1,694.2z M490.1,653.7
				c-12.2,0-22.2,7.4-22.2,16.4s9.9,16.4,22.2,16.4c7,0,13.7-2.5,17.9-6.7c2.8-2.8,4.3-6.2,4.3-9.7
				C512.2,661.1,502.3,653.7,490.1,653.7L490.1,653.7z"/>
			<path class="st2" d="M413.4,632.8c-17,0-30.8-13.4-30.8-29.8s13.9-29.8,30.8-29.8s30.8,13.4,30.8,29.8S430.4,632.8,413.4,632.8z"
				/>
			<path d="M413.4,636.6c-19.1,0-34.6-15.1-34.6-33.7s15.5-33.7,34.6-33.7s34.6,15.1,34.6,33.7S432.5,636.6,413.4,636.6z
				 M413.4,576.9c-14.9,0-27,11.7-27,26s12.1,26,27,26s27-11.7,27-26S428.3,576.9,413.4,576.9z"/>
			<path class="st2" d="M331.8,632.8c-17,0-30.8-13.4-30.8-29.8s13.9-29.8,30.8-29.8s30.8,13.4,30.8,29.8S348.8,632.8,331.8,632.8z"
				/>
			<path d="M331.8,636.6c-19.1,0-34.6-15.1-34.6-33.7s15.5-33.7,34.6-33.7s34.6,15.1,34.6,33.7S350.9,636.6,331.8,636.6z
				 M331.8,576.9c-14.9,0-27,11.7-27,26s12.1,26,27,26s27-11.7,27-26S346.7,576.9,331.8,576.9z"/>
		</g>
		<g>
			<circle class="st3" cx="369.8" cy="364" r="203.9"/>
			<path class="st0" d="M566.3,364.8c-4.8,0.2-9.7,1.5-13.8,4c-6.6,4-10.2,10.9-11,18.4c-0.5,4.8-1.5,9.6-3.8,13.9
				c-2.3,4.5-5.8,7.3-10.1,9.8c-11.5,6.7-26.3,7.5-38.7,3l0-98.5c12.5-4.5,27.2-3.7,38.7,3c4.3,2.5,7.8,5.4,10.1,9.8
				c2.3,4.3,3.2,9.1,3.8,13.9c0.9,7.5,4.5,14.4,11,18.4C556.6,363.3,561.4,364.5,566.3,364.8c0-0.1,0-0.1,0-0.1
				c0-54.2-22-103.4-57.5-138.9c-3.3,3.6-5.8,7.9-6.9,12.7c-1.8,7.5,0.5,14.9,5.2,20.8c3,3.8,5.7,7.9,7.2,12.5
				c1.5,4.8,1.1,9.3-0.2,14.1c-3.5,12.9-13.3,23.9-25.3,29.5l-69.7-69.6c5.6-12,16.6-21.8,29.5-25.3c4.8-1.3,9.3-1.7,14.1-0.2
				c4.6,1.4,8.7,4.2,12.5,7.2c5.9,4.7,13.4,7,20.9,5.2c4.8-1.1,9.1-3.7,12.7-7c-35.6-35.6-84.7-57.6-139-57.6
				c0.2,4.9,1.5,9.7,4,13.9c4,6.6,10.9,10.2,18.4,11c4.8,0.6,9.6,1.5,13.9,3.8c4.5,2.4,7.3,5.8,9.8,10.1c6.7,11.5,7.5,26.3,3,38.7
				l-98.5,0c-4.5-12.5-3.7-27.2,3-38.7c2.5-4.3,5.4-7.8,9.8-10.1c4.3-2.3,9.1-3.2,13.9-3.8c7.5-0.9,14.4-4.5,18.4-11
				c2.6-4.2,3.8-9,4-13.9c-54.3,0-103.4,22-139,57.6c3.6,3.3,7.9,5.8,12.7,6.9c7.5,1.8,14.9-0.5,20.9-5.2c3.8-3,7.9-5.7,12.5-7.2
				c4.8-1.5,9.3-1.1,14.1,0.2c12.9,3.4,23.9,13.3,29.5,25.3l-69.6,69.7c-12-5.6-21.8-16.6-25.3-29.5c-1.3-4.8-1.7-9.3-0.2-14.1
				c1.4-4.6,4.2-8.7,7.2-12.5c4.7-5.9,7-13.4,5.2-20.9c-1.1-4.8-3.7-9.1-7-12.7c-35.5,35.6-57.5,84.7-57.5,138.9c0,0,0,0,0,0.1
				c4.9-0.2,9.7-1.5,13.8-4c6.6-4,10.2-10.9,11-18.4c0.6-4.8,1.5-9.6,3.8-13.9c2.4-4.5,5.8-7.3,10.1-9.8c11.5-6.7,26.3-7.5,38.7-3
				l0,98.5c-12.5,4.5-27.2,3.7-38.7-3c-4.3-2.5-7.8-5.4-10.1-9.8c-2.3-4.3-3.2-9.1-3.8-13.9c-0.9-7.5-4.5-14.4-11-18.4
				c-4.1-2.5-9-3.8-13.8-4c0,54.2,22,103.3,57.6,138.9c3.2-3.6,5.7-7.9,6.9-12.6c1.8-7.5-0.5-14.9-5.2-20.9c-3-3.8-5.7-7.9-7.2-12.5
				c-1.5-4.8-1.1-9.3,0.2-14.1c3.4-12.9,13.3-23.9,25.3-29.5l69.7,69.6c-5.6,12-16.6,21.8-29.5,25.3c-4.8,1.3-9.3,1.7-14.1,0.2
				c-4.6-1.4-8.7-4.2-12.5-7.2c-5.9-4.7-13.4-7-20.9-5.2c-4.7,1.1-9,3.6-12.6,6.9c35.6,35.5,84.6,57.5,138.9,57.5
				c-0.2-4.8-1.5-9.6-4-13.7c-4-6.6-10.9-10.2-18.4-11c-4.8-0.5-9.6-1.5-13.9-3.8c-4.5-2.3-7.3-5.8-9.8-10.1
				c-6.7-11.5-7.5-26.3-3-38.7l98.5,0c4.5,12.5,3.7,27.2-3,38.7c-2.5,4.3-5.4,7.8-9.8,10.1c-4.3,2.3-9.1,3.2-13.9,3.8
				c-7.5,0.9-14.4,4.5-18.4,11c-2.5,4.1-3.8,8.9-4,13.7c54.2,0,103.3-22,138.9-57.5c-3.6-3.2-7.9-5.7-12.6-6.9
				c-7.5-1.8-14.9,0.5-20.9,5.2c-3.8,3-7.9,5.7-12.5,7.2c-4.8,1.5-9.3,1.1-14.1-0.2c-12.9-3.5-23.9-13.3-29.5-25.3l69.6-69.7
				c12,5.6,21.8,16.6,25.3,29.5c1.3,4.8,1.7,9.3,0.2,14.1c-1.4,4.6-4.2,8.7-7.2,12.5c-4.7,5.9-7,13.4-5.2,20.9
				c1.1,4.7,3.6,9,6.9,12.6C544.3,468.2,566.3,419.1,566.3,364.8L566.3,364.8z"/>
			<path class="st4" d="M392.1,535.2c4.7-0.5,9.5-1.5,13.8-3.7c4.4-2.3,7.3-5.8,9.8-10.1c6.6-11.5,7.4-26.1,3-38.4l-97.8,0
				c-4.4,12.4-3.6,27,3,38.4c2.5,4.3,5.3,7.7,9.8,10.1c4.2,2.2,9.1,3.2,13.8,3.7c7.5,0.9,14.3,4.4,18.3,11c2.5,4.1,3.8,8.8,4,13.6
				c0,0,0,0,0,0s0,0,0,0c0.2-4.8,1.5-9.5,4-13.6C377.8,539.6,384.6,536,392.1,535.2L392.1,535.2z"/>
			<path class="st3" d="M371.2,561.2h-1.5l-1.4,0l-0.1-1.4c-0.2-4.8-1.5-9.2-3.8-12.9c-3.5-5.7-9.6-9.4-17.2-10.3
				c-4.1-0.5-9.5-1.4-14.3-3.9c-4.2-2.2-7.4-5.5-10.4-10.6c-6.7-11.6-7.9-26.4-3.1-39.7l0.4-1l99.9,0l0.4,1
				c4.8,13.3,3.6,28.1-3.1,39.7c-3,5.2-6.2,8.4-10.4,10.6c-4.8,2.5-10.2,3.4-14.3,3.9l0,0c-7.6,0.9-13.7,4.5-17.2,10.3
				c-2.2,3.7-3.6,8.1-3.8,12.9L371.2,561.2L371.2,561.2z M321.9,484.4c-4,12-2.8,25.8,3.2,36.2c2.7,4.7,5.5,7.5,9.2,9.5
				c4.4,2.3,9.4,3.1,13.3,3.6c8.5,1,15.4,5.1,19.4,11.7c1.1,1.9,2.1,3.9,2.8,6.1c0.7-2.2,1.6-4.2,2.8-6.1c4-6.5,10.9-10.7,19.4-11.7
				l0,0c3.9-0.5,8.9-1.3,13.3-3.6c3.7-2,6.5-4.8,9.2-9.5c6-10.4,7.2-24.2,3.2-36.2L321.9,484.4L321.9,484.4z"/>
			<path class="st4" d="M265.1,501.1c3.7,3,7.8,5.7,12.4,7.1c4.8,1.5,9.2,1.1,14-0.2c12.8-3.4,23.7-13.2,29.3-25.1l-69.1-69.1
				c-11.9,5.6-21.6,16.5-25.1,29.3c-1.3,4.8-1.7,9.2-0.2,14c1.4,4.6,4.1,8.7,7.1,12.4c4.7,5.9,7,13.2,5.2,20.7
				c-1.1,4.7-3.6,8.9-6.8,12.5c0,0,0,0,0,0c3.6-3.2,7.8-5.7,12.5-6.8C251.8,494.1,259.2,496.4,265.1,501.1L265.1,501.1z"/>
			<path class="st3" d="M283.7,510.6c-2.3,0-4.5-0.3-6.6-1c-5.2-1.6-9.6-4.8-12.9-7.4l0,0c-6-4.7-12.9-6.5-19.4-4.9
				c-4.2,1-8.3,3.2-11.8,6.5l-1.1,1l-2-2l0.9-1.1c3.2-3.6,5.5-7.6,6.4-11.8c1.6-6.5-0.2-13.5-4.9-19.4c-2.6-3.3-5.8-7.7-7.4-12.9
				c-1.4-4.5-1.3-9.1,0.2-14.8c3.5-12.9,13.1-24.2,25.9-30.2l0.9-0.5l70.6,70.6l-0.5,1c-6,12.7-17.3,22.4-30.2,25.9
				C288.9,510.2,286.2,510.6,283.7,510.6L283.7,510.6z M249.5,493.8c5.7,0,11.4,2.1,16.5,6.1l0,0c3.1,2.4,7.2,5.4,11.9,6.9
				c4,1.2,8,1.2,13.2-0.2c11.6-3.1,22.2-12,27.9-23.3l-67.6-67.6c-11.3,5.7-20.2,16.3-23.3,27.9c-1.4,5.2-1.5,9.2-0.2,13.2
				c1.5,4.7,4.4,8.9,6.9,11.9c5.3,6.7,7.2,14.5,5.5,22c-0.5,2.1-1.3,4.2-2.4,6.3c2-1.1,4.2-1.9,6.3-2.4
				C245.8,494,247.7,493.8,249.5,493.8L249.5,493.8z"/>
			<path class="st4" d="M199.4,387.1c0.6,4.7,1.5,9.5,3.7,13.8c2.3,4.4,5.8,7.3,10.1,9.8c11.4,6.6,26.1,7.4,38.4,3l0-97.8
				c-12.4-4.4-27-3.6-38.4,3c-4.3,2.5-7.7,5.3-10.1,9.8c-2.2,4.2-3.2,9.1-3.7,13.8c-0.9,7.5-4.4,14.3-11,18.3
				c-4.1,2.5-8.9,3.8-13.7,4c0,0,0,0,0,0c4.8,0.2,9.6,1.5,13.7,4C194.9,372.8,198.5,379.7,199.4,387.1L199.4,387.1z"/>
			<path class="st3" d="M235.4,418c-8.1,0-16.1-2-23-6c-5.1-3-8.4-6.2-10.6-10.4c-2.5-4.8-3.4-10.2-3.9-14.3
				c-0.9-7.6-4.5-13.7-10.3-17.2c-3.7-2.3-8.2-3.6-13-3.8l-1.4-0.1v-2.8l1.4-0.1c4.8-0.2,9.3-1.5,13-3.8c5.7-3.5,9.4-9.6,10.3-17.2
				c0.5-4.1,1.4-9.5,3.9-14.3c2.2-4.2,5.5-7.4,10.6-10.4c11.6-6.7,26.4-7.9,39.7-3.1l1,0.4l0,99.9l-1,0.4
				C246.7,417,241,417.9,235.4,418L235.4,418z M183.1,364.8c2.2,0.7,4.2,1.6,6.1,2.8c6.5,4,10.7,10.9,11.7,19.4
				c0.4,3.9,1.3,8.9,3.6,13.3c2,3.7,4.8,6.5,9.5,9.2c10.4,6,24.2,7.2,36.2,3.2l0-95.6c-12-4-25.8-2.8-36.2,3.2
				c-4.7,2.7-7.5,5.5-9.5,9.2c-2.3,4.4-3.1,9.4-3.6,13.3c-1,8.5-5.1,15.4-11.7,19.4C187.3,363.1,185.3,364.1,183.1,364.8
				L183.1,364.8z"/>
			<path class="st4" d="M233.5,260.1c-3,3.7-5.7,7.8-7.1,12.4c-1.5,4.8-1.1,9.2,0.2,14c3.4,12.8,13.2,23.7,25.1,29.3l69.1-69.1
				c-5.6-11.9-16.5-21.6-29.3-25.1c-4.8-1.3-9.2-1.7-14-0.2c-4.6,1.4-8.7,4.1-12.4,7.1c-5.9,4.7-13.2,7-20.7,5.2
				c-4.7-1.1-9-3.6-12.6-6.9c0,0,0,0,0,0c3.3,3.6,5.8,7.9,6.9,12.6C240.4,246.9,238.1,254.2,233.5,260.1L233.5,260.1z"/>
			<path class="st3" d="M252,317.6l-0.9-0.5c-12.7-6-22.4-17.3-25.9-30.2c-1.5-5.7-1.6-10.3-0.2-14.8c1.6-5.2,4.8-9.6,7.4-12.9l0,0
				c4.7-6,6.5-12.9,4.9-19.4c-1-4.2-3.3-8.4-6.6-11.9l-1-1.1l2-2l1.1,0.9c3.6,3.3,7.7,5.5,11.9,6.5c6.6,1.6,13.5-0.2,19.4-4.9
				c3.3-2.6,7.7-5.8,12.9-7.4c4.5-1.4,9.1-1.3,14.8,0.2c12.9,3.5,24.2,13.1,30.2,25.9l0.5,0.9L252,317.6L252,317.6z M237.8,232.8
				c1.1,2,1.9,4.2,2.4,6.3c1.8,7.5-0.2,15.3-5.5,22l0,0c-2.4,3.1-5.4,7.2-6.9,11.9c-1.2,4-1.2,8,0.2,13.2
				c3.1,11.6,12,22.2,23.3,27.9l67.6-67.6c-5.7-11.3-16.3-20.2-27.9-23.3c-5.2-1.4-9.2-1.5-13.2-0.2c-4.7,1.5-8.9,4.4-11.9,6.9
				c-6.7,5.3-14.5,7.2-22,5.5C241.9,234.6,239.8,233.8,237.8,232.8z"/>
			<path class="st4" d="M347.4,194.4c-4.7,0.6-9.5,1.5-13.8,3.7c-4.4,2.3-7.3,5.8-9.8,10.1c-6.6,11.4-7.4,26.1-3,38.4l97.8,0
				c4.4-12.4,3.6-27-3-38.4c-2.5-4.3-5.3-7.7-9.8-10.1c-4.2-2.2-9.1-3.2-13.8-3.7c-7.5-0.9-14.3-4.4-18.3-11
				c-2.5-4.1-3.8-8.9-4-13.8h0c0,0,0,0,0,0c-0.2,4.9-1.5,9.7-4,13.8C361.7,190,354.9,193.5,347.4,194.4L347.4,194.4z"/>
			<path class="st3" d="M319.8,248.1l-0.4-1c-4.8-13.3-3.6-28.1,3.1-39.7c3-5.1,6.2-8.4,10.4-10.6c4.8-2.5,10.2-3.4,14.3-3.9l0,0
				c7.6-0.9,13.7-4.5,17.2-10.3c2.3-3.7,3.6-8.2,3.8-13.1l0.1-1.4h2.9l0.1,1.4c0.2,4.9,1.5,9.4,3.8,13.1c3.5,5.7,9.6,9.4,17.2,10.3
				c4.1,0.5,9.5,1.4,14.3,3.9c4.2,2.2,7.4,5.5,10.4,10.6c6.7,11.6,7.9,26.4,3.1,39.7l-0.4,1L319.8,248.1L319.8,248.1z M347.6,195.9
				L347.6,195.9c-3.9,0.4-8.9,1.3-13.3,3.6c-3.7,2-6.5,4.8-9.2,9.5c-6,10.4-7.2,24.2-3.2,36.2l95.6,0c4-12,2.8-25.8-3.2-36.2
				c-2.7-4.7-5.5-7.5-9.2-9.5c-4.4-2.3-9.4-3.1-13.3-3.6c-8.5-1-15.4-5.1-19.4-11.7c-1.1-1.9-2.1-3.9-2.8-6.1
				c-0.7,2.2-1.6,4.2-2.8,6.1C363,190.8,356.1,194.9,347.6,195.9L347.6,195.9z"/>
			<path class="st4" d="M474.4,228.5c-3.7-3-7.8-5.7-12.4-7.1c-4.8-1.5-9.2-1.1-14,0.2c-12.8,3.4-23.7,13.2-29.3,25.1l69.1,69.1
				c11.9-5.6,21.6-16.5,25.1-29.3c1.3-4.8,1.7-9.2,0.2-14c-1.4-4.6-4.1-8.7-7.1-12.4c-4.7-5.9-7-13.2-5.2-20.7
				c1.1-4.7,3.6-9,6.9-12.6c0,0,0,0,0,0c-3.6,3.3-7.9,5.8-12.6,6.9C487.7,235.5,480.3,233.2,474.4,228.5L474.4,228.5z"/>
			<path class="st3" d="M487.6,317.6L416.9,247l0.5-0.9c6-12.7,17.3-22.4,30.2-25.9c5.7-1.5,10.3-1.6,14.8-0.2
				c5.2,1.6,9.6,4.8,12.9,7.4l0,0c6,4.7,12.9,6.5,19.4,4.9c4.2-1,8.4-3.3,11.9-6.6l1-1l2,2l-0.9,1.1c-3.3,3.6-5.5,7.7-6.5,11.9
				c-1.6,6.6,0.2,13.4,4.9,19.4c2.6,3.3,5.8,7.7,7.4,12.9c1.4,4.5,1.3,9.1-0.2,14.8c-3.5,12.9-13.1,24.2-25.9,30.2L487.6,317.6
				L487.6,317.6z M420.5,246.4l67.6,67.6c11.3-5.7,20.2-16.3,23.3-27.9c1.4-5.2,1.5-9.2,0.2-13.2c-1.5-4.7-4.4-8.9-6.9-11.9
				c-5.3-6.7-7.2-14.5-5.5-22c0.5-2.1,1.3-4.2,2.4-6.3c-2,1.1-4.2,1.9-6.3,2.4c-7.5,1.8-15.3-0.2-22-5.5c-3.1-2.4-7.2-5.4-11.9-6.9
				c-4-1.2-8-1.2-13.2,0.2C436.8,226.2,426.2,235.1,420.5,246.4z"/>
			<path class="st4" d="M540.1,342.4c-0.5-4.7-1.5-9.5-3.7-13.8c-2.3-4.4-5.8-7.3-10.1-9.8c-11.5-6.6-26.1-7.4-38.4-3l0,97.8
				c12.4,4.4,27,3.6,38.4-3c4.3-2.5,7.7-5.3,10.1-9.8c2.2-4.2,3.2-9.1,3.7-13.8c0.9-7.5,4.4-14.3,11-18.3c4.1-2.5,8.9-3.8,13.7-4
				c0,0,0,0,0,0c-4.8-0.2-9.6-1.5-13.7-4C544.5,356.7,541,349.9,540.1,342.4L540.1,342.4z"/>
			<path class="st3" d="M504.1,418c-5.6,0-11.3-1-16.7-2.9l-1-0.4l0-99.9l1-0.4c13.3-4.8,28.1-3.6,39.7,3.1c5.2,3,8.4,6.2,10.6,10.4
				c2.5,4.8,3.4,10.2,3.9,14.3l0,0c0.9,7.6,4.5,13.7,10.3,17.2c3.7,2.3,8.2,3.6,13,3.8l1.4,0.1v2.8l-1.4,0.1
				c-4.8,0.2-9.3,1.5-13,3.8c-5.7,3.5-9.4,9.6-10.3,17.2c-0.5,4.1-1.4,9.5-3.9,14.3c-2.2,4.2-5.5,7.4-10.6,10.4
				C520.2,416,512.2,418,504.1,418L504.1,418z M489.4,412.6c12,4,25.8,2.8,36.2-3.2c4.7-2.7,7.5-5.5,9.5-9.2
				c2.3-4.4,3.1-9.4,3.6-13.3c1-8.5,5.1-15.4,11.7-19.4c1.9-1.1,3.9-2.1,6.1-2.8c-2.2-0.7-4.2-1.6-6.1-2.8
				c-6.5-4-10.7-10.9-11.7-19.4l0,0c-0.5-3.9-1.3-8.9-3.6-13.3c-2-3.7-4.8-6.5-9.5-9.2c-10.4-6-24.2-7.2-36.2-3.2L489.4,412.6
				L489.4,412.6z"/>
			<path class="st4" d="M506,469.5c3-3.7,5.7-7.8,7.1-12.4c1.5-4.8,1.1-9.2-0.2-14c-3.4-12.8-13.2-23.7-25.1-29.3l-69.1,69.1
				c5.6,11.9,16.5,21.6,29.3,25.1c4.8,1.3,9.2,1.7,14,0.2c4.6-1.4,8.7-4.1,12.4-7.1c5.9-4.7,13.2-7,20.7-5.2
				c4.7,1.1,8.9,3.6,12.5,6.8c0,0,0,0,0,0c-3.2-3.6-5.7-7.8-6.8-12.5C499.1,482.7,501.4,475.3,506,469.5L506,469.5z"/>
			<path class="st3" d="M455.9,510.6c-2.5,0-5.2-0.4-8.2-1.2c-12.9-3.5-24.2-13.1-30.2-25.9l-0.5-1l70.6-70.6l1,0.5
				c12.7,6,22.4,17.3,25.9,30.2c1.5,5.7,1.6,10.3,0.2,14.8c-1.6,5.2-4.8,9.6-7.4,12.9c-4.7,6-6.5,12.9-4.9,19.4
				c1,4.2,3.2,8.3,6.5,11.8l0.9,1l-1,1.1l-1,1l-1-0.9c-3.6-3.2-7.6-5.5-11.8-6.5c-6.5-1.6-13.5,0.2-19.4,4.9
				c-3.3,2.6-7.7,5.8-12.9,7.4C460.3,510.3,458.2,510.6,455.9,510.6L455.9,510.6z M420.6,483.2c5.7,11.3,16.3,20.2,27.9,23.3
				c5.2,1.4,9.2,1.5,13.2,0.2c4.7-1.5,8.9-4.4,11.9-6.9c6.7-5.3,14.5-7.2,22-5.5c2.1,0.5,4.2,1.3,6.3,2.4c-1.1-2-1.9-4.2-2.4-6.3
				c-1.8-7.5,0.2-15.2,5.5-22l0,0c2.4-3.1,5.4-7.2,6.9-11.9c1.2-4,1.2-8-0.2-13.2c-3.1-11.6-12-22.2-23.3-27.9L420.6,483.2
				L420.6,483.2z"/>
			<circle class="st3" cx="369.8" cy="364.7" r="126.6"/>
			<path class="st3" d="M418.6,237.4c0-0.1-0.1-0.3-0.1-0.5c-0.6-2.8-1.2-5.6-1.8-8.4c-0.4-1.8-0.5-3.2-0.3-4.7
				c0.1-1.2,0.5-2.5,1.1-4.1c1.2-2.9,2.6-6.2,4.2-9.9c0.9-2.1,3.4-2.6,4.2-2.8c0.6-0.1,1.2-0.2,1.9-0.2c0.5,0,1.1,0,1.7,0.1
				c3.6,0.4,7,1.9,9.9,4.1c2.1,1.6,4.2,3.5,4.5,5.9c0.3,1.4,0,2.4-0.5,3.5l-0.5,1.2c-0.8,1.9-1.7,4-2.7,5.9c-0.2,0.3-0.4,0.7-0.5,1
				c-1.4,2.6-3.1,5.9-6,7.4c-0.1,0.1-0.3,0.1-0.5,0.2l-2.7,1.5l-1.6,0.9c-1.2,0.7-2.3,1.3-3.1,1.7l-0.1,0.1l-0.1,0l-5.6,3.2
				L418.6,237.4L418.6,237.4z M428.6,231.2c0.2-0.9-0.1-1.7-0.3-2c-0.5-1-1.5-1.6-2.4-1.6h-0.1c-0.8,0-1.6,0.4-2.1,1.1L428.6,231.2
				L428.6,231.2z"/>
			<path class="st3" d="M427.7,208.3c0.5,0,1,0,1.5,0.1c3.3,0.4,6.5,1.7,9.2,3.8c1.5,1.1,3.7,2.9,4,4.9c0.2,1,0,1.7-0.4,2.7
				c-1,2.3-2,4.7-3.2,7c-1.5,2.7-3.1,6.4-5.9,7.9c-0.1,0.1-0.3,0.2-0.5,0.3l-2.7,1.5c-1.7,1-3.6,2.1-4.7,2.7c0,0,0,0-0.1,0l-4,2.3
				L420,237c0-0.1-0.1-0.2-0.1-0.3c-0.6-2.8-1.2-5.6-1.8-8.4c-0.3-1.5-0.5-2.7-0.3-4.2c0.1-1.3,0.5-2.5,1-3.7
				c1.3-3.2,2.8-6.6,4.2-9.9c0.5-1.2,1.9-1.7,3.1-2C426.6,208.3,427.2,208.3,427.7,208.3 M429.2,233.2c0.1-0.1,0.2-0.3,0.4-0.4
				c1.9-2.8-0.5-6.6-3.6-6.6c0,0-0.1,0-0.1,0c-1.6,0-3.1,1.1-3.8,2.4c-0.1,0.3-0.2,0.6-0.3,0.8L429.2,233.2 M427.7,205.3
				c-0.8,0-1.5,0.1-2.2,0.2c-1,0.2-4,0.9-5.2,3.7c-1.7,3.8-3.1,7-4.3,10c-0.7,1.6-1,3.1-1.2,4.5c-0.2,1.7-0.1,3.2,0.3,5.2
				c0.6,3,1.2,5.7,1.8,8.4c0,0.2,0.1,0.4,0.2,0.6l0.9,4.1l0.9,4l3.5-2l3.8-2.1l0.1,0l0.2-0.1c0.8-0.4,1.9-1.1,3.1-1.8l1.6-0.9
				l2.7-1.5c0.1-0.1,0.3-0.2,0.4-0.2c3.3-1.8,5.1-5.3,6.6-8.1c0.2-0.3,0.4-0.7,0.5-1c1-1.9,1.9-4,2.8-6c0.2-0.4,0.4-0.8,0.5-1.2
				c0.5-1.2,0.9-2.5,0.6-4.3c-0.4-2.9-2.8-5.1-5.1-6.8c-3.1-2.4-6.8-3.9-10.6-4.3C428.9,205.4,428.3,205.3,427.7,205.3L427.7,205.3
				L427.7,205.3z"/>
			<path class="st1" d="M442,219.8c-1,2.3-2,4.7-3.2,7c-1.5,2.7-3.1,6.4-5.9,7.9c-1.2,0.6-5.9,3.3-7.9,4.5c-0.8,0.3-0.7-0.4-0.5-0.9
				c0.4-1.1,1.1-2.3,2-3.1c0.9-0.9,2.2-1.1,3-2.3c1.9-2.8-0.5-6.7-3.7-6.6c-1.6,0-3.1,1.1-3.8,2.4c-0.8,1.6-0.2,3.3-0.1,4.9
				c0.1,1.2-0.3,2.2-0.9,3.2c-0.1,0.2-0.5,0.7-0.7,0.6c-0.2-0.1-0.3-0.4-0.4-0.6c-0.6-2.8-1.2-5.6-1.8-8.4c-0.3-1.5-0.5-2.7-0.3-4.2
				c0.1-1.3,0.5-2.5,1-3.7c1.3-3.2,2.8-6.6,4.2-9.9c0.5-1.2,1.9-1.7,3.1-2c1-0.2,2.1-0.2,3.1-0.1c3.3,0.4,6.5,1.7,9.2,3.8
				c1.5,1.1,3.7,2.9,4,4.9C442.6,218.1,442.5,218.8,442,219.8L442,219.8z"/>
			<path class="st4" d="M427.8,230.4c0,0.5-0.2,0.9-0.4,1.3c-0.2,0.2-0.5,0.5-0.9,0.5c-0.2,0.1-0.3,0.1-0.5,0.1
				c-0.7,0-1.4-0.4-1.7-1.1c-0.1-0.2-0.2-0.6-0.2-0.8V230c0.2-0.8,0.9-1.4,1.8-1.4C426.9,228.5,427.8,229.3,427.8,230.4L427.8,230.4
				z"/>
			<path class="st3" d="M508.8,319.1c-0.9,0-1.7-0.1-2.5-0.3c-0.1,0-0.3-0.1-0.5-0.1l-3-0.8l-1.8-0.5c-1.3-0.4-2.6-0.7-3.5-0.9
				l-0.1,0l-0.1,0l-6.3-1.7l3.4-5.4c0.1-0.1,0.1-0.3,0.2-0.4c1.5-2.5,3-4.9,4.6-7.3c1-1.6,1.9-2.6,3.1-3.6c0.9-0.8,2.1-1.5,3.6-2.2
				c2.9-1.3,6.1-2.6,9.9-4.1c0.5-0.2,1-0.3,1.5-0.3c1.1,0,2.2,0.4,3.5,1.2c1.2,0.7,2.1,1.8,2.6,2.5c2.2,2.8,3.7,6.2,4.3,9.8
				c0.4,2.6,0.6,5.4-0.8,7.4c-0.8,1.2-1.6,1.7-2.8,2.2L523,315c-2,0.8-4,1.7-6,2.3c-0.3,0.1-0.7,0.2-1.1,0.4
				C513.7,318.3,511.2,319.1,508.8,319.1L508.8,319.1L508.8,319.1z M506,311.9c0.8-0.5,1.1-1.3,1.2-1.7c0.3-1,0-2.1-0.7-2.8
				c-0.5-0.5-1.2-0.7-2-0.7c-0.1,0-0.2,0-0.4,0L506,311.9L506,311.9z"/>
			<path class="st3" d="M517.4,292.9c0.9,0,1.9,0.5,2.7,1c0.9,0.5,1.6,1.3,2.2,2.1c2.1,2.6,3.5,5.8,4,9.1c0.3,1.9,0.6,4.7-0.6,6.3
				c-0.5,0.8-1.1,1.2-2.1,1.6c-2.3,0.9-4.7,2-7.2,2.8c-2.3,0.7-5.1,1.8-7.6,1.8c-0.7,0-1.4-0.1-2-0.3c-0.1,0-0.3-0.1-0.5-0.1l-3-0.8
				c-1.9-0.5-4-1-5.2-1.4c0,0,0,0-0.1,0l-4.5-1.2l2.4-3.8c0-0.1,0.1-0.2,0.2-0.3c1.5-2.5,3-4.9,4.6-7.3c0.8-1.3,1.6-2.3,2.7-3.2
				c1-0.8,2.1-1.5,3.3-2c3.2-1.4,6.6-2.8,9.9-4.1C516.7,293,517.1,292.9,517.4,292.9 M505,313.7c0.2,0,0.4,0,0.5-0.1
				c3.3-0.7,4.3-5.1,2-7.3c-0.8-0.7-1.9-1.1-3-1.1c-0.5,0-1,0.1-1.4,0.2c-0.3,0.1-0.5,0.2-0.8,0.4L505,313.7 M517.4,289.9
				c-0.7,0-1.4,0.1-2,0.4c-3.8,1.5-7.1,2.9-10,4.2c-1.6,0.7-2.9,1.5-4,2.4c-1.3,1.1-2.3,2.2-3.4,4c-1.6,2.6-3.1,5-4.6,7.3
				c-0.1,0.2-0.2,0.3-0.3,0.5l-2.2,3.6l-2.2,3.4l3.9,1l4.2,1.1l0.1,0l0.3,0.1c0.9,0.2,2.1,0.6,3.5,0.9l1.8,0.5l3,0.8
				c0.2,0,0.3,0.1,0.5,0.1c0.9,0.3,1.9,0.4,2.9,0.4c2.6,0,5.2-0.8,7.5-1.6c0.4-0.1,0.7-0.2,1.1-0.3c2.1-0.7,4.2-1.5,6.2-2.3
				c0.4-0.2,0.8-0.4,1.2-0.5c1.2-0.5,2.4-1.2,3.5-2.7c1.8-2.4,1.5-5.6,1.1-8.5c-0.6-3.9-2.2-7.5-4.6-10.5c-0.6-0.8-1.6-1.9-3-2.8
				C520.1,290.4,518.7,289.9,517.4,289.9L517.4,289.9L517.4,289.9z"/>
			<path class="st1" d="M523.6,313.1c-2.3,0.9-4.7,2-7.2,2.8c-3,0.9-6.6,2.4-9.7,1.5c-1.3-0.4-6.5-1.7-8.8-2.3
				c-0.8-0.4-0.2-0.8,0.3-1c1-0.6,2.4-0.9,3.6-0.9c1.3,0,2.4,0.7,3.7,0.5c3.3-0.7,4.3-5.1,2-7.3c-1.1-1.1-2.9-1.4-4.4-0.9
				c-1.7,0.6-2.5,2.2-3.5,3.5c-0.8,0.9-1.8,1.3-2.9,1.6c-0.3,0.1-0.8,0.2-0.9-0.1c-0.1-0.2,0-0.5,0.2-0.7c1.5-2.5,3-4.9,4.6-7.3
				c0.8-1.3,1.6-2.3,2.7-3.2c1-0.8,2.1-1.5,3.3-2c3.2-1.4,6.6-2.8,9.9-4.1c1.2-0.5,2.5,0.1,3.6,0.8c0.9,0.5,1.6,1.3,2.2,2.1
				c2.1,2.6,3.5,5.8,4,9.1c0.3,1.9,0.6,4.7-0.6,6.3C525.2,312.3,524.6,312.7,523.6,313.1L523.6,313.1z"/>
			<path class="st4" d="M506,310.7c-0.3,0.3-0.8,0.5-1.2,0.6c-0.3,0-0.7,0-1-0.2c-0.2-0.1-0.3-0.2-0.4-0.3c-0.5-0.5-0.7-1.3-0.5-1.9
				c0.1-0.3,0.2-0.5,0.4-0.7l0.3-0.3c0.7-0.4,1.6-0.4,2.2,0.2C506.7,308.8,506.7,309.9,506,310.7z"/>
			<path class="st3" d="M517.7,438.3c-0.9,0-1.7-0.3-2.3-0.5l-1.2-0.5c-2-0.8-4-1.6-5.9-2.5c-0.3-0.2-0.7-0.3-1-0.5
				c-2.7-1.3-6-2.9-7.6-5.7c-0.1-0.1-0.2-0.3-0.3-0.5l-1.6-2.6l-1-1.6c-0.7-1.1-1.4-2.2-1.8-3l-0.1-0.1l0-0.1l-3.4-5.5l6.2-1.5
				c0.1-0.1,0.3-0.1,0.5-0.1c2.8-0.7,5.6-1.4,8.4-2.1c1.4-0.4,2.5-0.5,3.6-0.5c0.4,0,0.7,0,1.1,0c1.2,0.1,2.5,0.4,4.1,0.9
				c3,1.1,6.2,2.3,10,3.9c2.1,0.9,2.8,3.3,3,4.1c0.3,1.4,0.3,2.7,0.2,3.6c-0.3,3.6-1.6,7.1-3.7,10.1c-1.5,2.1-3.3,4.3-5.7,4.8
				C518.5,438.3,518.1,438.3,517.7,438.3L517.7,438.3L517.7,438.3z M504,423.4c0.2,0,0.4,0.1,0.6,0.1c0.8,0,1.6-0.4,2.2-1
				c0.5-0.6,0.8-1.2,0.8-1.9c0-0.8-0.5-1.6-1.2-2.1L504,423.4L504,423.4z"/>
			<path class="st3" d="M509.9,412.3c0.3,0,0.6,0,1,0c1.3,0.1,2.5,0.4,3.7,0.8c3.3,1.2,6.7,2.5,10,3.9c1.2,0.5,1.8,1.8,2.1,3.1
				c0.3,1,0.3,2.1,0.2,3.1c-0.3,3.4-1.5,6.6-3.4,9.4c-1.1,1.6-2.8,3.8-4.8,4.1c-0.3,0.1-0.6,0.1-0.9,0.1c-0.6,0-1.1-0.1-1.8-0.4
				c-2.3-0.9-4.8-1.8-7.1-3c-2.8-1.4-6.5-2.9-8-5.6c-0.1-0.1-0.2-0.3-0.3-0.5l-1.6-2.6c-1-1.7-2.2-3.5-2.8-4.6c0,0,0,0,0-0.1l-2.4-4
				l4.3-1.1c0.1,0,0.2-0.1,0.3-0.1c2.8-0.7,5.6-1.4,8.4-2.1C507.8,412.5,508.8,412.3,509.9,412.3 M504.6,424.9
				c2.3,0,4.6-2.1,4.4-4.5c-0.1-1.6-1.1-3-2.6-3.7c-0.3-0.1-0.6-0.2-0.8-0.3l-3.5,7.5c0.1,0.1,0.3,0.2,0.4,0.3
				C503.2,424.7,503.9,424.9,504.6,424.9 M509.9,409.3c-1.2,0-2.5,0.2-4,0.6c-2.9,0.7-5.7,1.4-8.4,2.1c-0.2,0-0.4,0.1-0.5,0.2
				l-4.1,1l-3.9,1l2.1,3.5l2.2,3.7l0,0.1l0.1,0.2c0.5,0.8,1.1,1.9,1.9,3l1,1.6l1.6,2.6c0.1,0.1,0.2,0.3,0.2,0.4
				c1.9,3.2,5.4,4.9,8.3,6.3c0.4,0.2,0.7,0.3,1,0.5c2,1,4.1,1.8,6.1,2.6c0.4,0.2,0.8,0.3,1.2,0.5c0.8,0.3,1.7,0.6,2.9,0.6
				c0.5,0,1-0.1,1.5-0.2c2.9-0.5,5-3,6.7-5.4c2.2-3.2,3.6-6.9,4-10.8c0.1-1,0.2-2.5-0.2-4.1c-0.2-1-1-3.9-3.8-5.1
				c-3.8-1.6-7.1-2.8-10.1-3.9c-1.7-0.6-3.2-0.9-4.5-1C510.7,409.3,510.3,409.3,509.9,409.3L509.9,409.3L509.9,409.3z"/>
			<path class="st1" d="M515.9,436.4c-2.3-0.9-4.8-1.8-7.1-3c-2.8-1.4-6.5-2.9-8-5.6c-0.7-1.2-3.5-5.8-4.7-7.7
				c-0.3-0.8,0.4-0.7,0.9-0.5c1.1,0.3,2.4,1,3.2,1.9c0.9,0.9,1.2,2.2,2.4,2.9c2.9,1.8,6.7-0.8,6.5-3.9c-0.1-1.6-1.1-3-2.6-3.7
				c-1.6-0.8-3.3-0.1-5,0.1c-1.2,0.1-2.2-0.3-3.2-0.8c-0.3-0.1-0.7-0.4-0.6-0.7c0.1-0.2,0.4-0.3,0.6-0.4c2.8-0.7,5.6-1.4,8.4-2.1
				c1.5-0.4,2.7-0.6,4.2-0.4c1.3,0.1,2.5,0.4,3.7,0.8c3.3,1.2,6.7,2.5,10,3.9c1.2,0.5,1.8,1.8,2.1,3.1c0.3,1,0.3,2.1,0.2,3.1
				c-0.3,3.4-1.5,6.6-3.4,9.4c-1.1,1.6-2.8,3.8-4.8,4.1C517.6,436.9,516.9,436.8,515.9,436.4L515.9,436.4z"/>
			<path class="st4" d="M504.8,422.5c-0.5,0-0.9-0.1-1.3-0.4c-0.2-0.2-0.5-0.5-0.6-0.9c-0.1-0.2-0.1-0.3-0.1-0.5
				c0-0.7,0.4-1.4,1-1.7c0.2-0.2,0.5-0.2,0.8-0.2h0.5c0.8,0.1,1.4,0.8,1.4,1.7C506.7,421.6,505.9,422.4,504.8,422.5L504.8,422.5z"/>
			<path class="st3" d="M428.5,524c-1.5,0-2.7-0.3-3.6-0.9c-1.2-0.7-1.8-1.5-2.3-2.7l-0.6-1.2c-0.9-1.9-1.9-3.9-2.6-5.9
				c-0.1-0.3-0.3-0.7-0.4-1.1c-1.1-2.8-2.4-6.2-1.7-9.4c0-0.1,0.1-0.3,0.1-0.5l0.6-3l0.4-1.9c0.3-1.3,0.5-2.6,0.7-3.4l0-0.1l0-0.1
				l1.3-6.3l5.5,3.1c0.1,0,0.3,0.1,0.4,0.2c2.5,1.4,5,2.8,7.6,4.2c1.6,0.9,2.7,1.7,3.8,2.9c0.8,0.9,1.6,2,2.4,3.5
				c1.4,2.8,2.9,6,4.6,9.7c1,2.1-0.2,4.3-0.6,5c-0.7,1.2-1.6,2.2-2.3,2.8c-2.7,2.4-6,4-9.6,4.8C431.2,523.8,429.9,524,428.5,524
				L428.5,524L428.5,524z M424.2,502.1c0.5,0.8,1.5,1.2,2.4,1.2c0.8,0,1.6-0.3,2.1-0.9c0.5-0.6,0.7-1.5,0.6-2.4L424.2,502.1
				L424.2,502.1z"/>
			<path class="st3" d="M421.6,489.7l3.9,2.2c0.1,0,0.2,0.1,0.3,0.1c2.5,1.4,5,2.8,7.5,4.2c1.4,0.7,2.4,1.5,3.4,2.6
				c0.9,0.9,1.6,2,2.1,3.1c1.6,3.1,3.2,6.5,4.6,9.7c0.5,1.2,0,2.5-0.6,3.7c-0.5,0.9-1.2,1.7-2,2.4c-2.5,2.2-5.6,3.8-8.9,4.5
				c-1,0.2-2.3,0.4-3.5,0.4c-1.1,0-2.1-0.2-2.9-0.7c-0.9-0.5-1.3-1.1-1.8-2c-1-2.2-2.2-4.6-3.1-7c-1.1-2.9-2.7-6.5-2-9.6
				c0-0.1,0.1-0.3,0.1-0.5l0.6-3c0.4-1.9,0.8-4.1,1.1-5.3c0,0,0,0,0-0.1L421.6,489.7 M426.6,504.8c1.2,0,2.4-0.5,3.2-1.4
				c1-1.2,1.2-3,0.7-4.5c-0.1-0.3-0.3-0.5-0.4-0.8l-7.7,3.1c0,0.2,0,0.4,0.1,0.5C422.9,503.7,424.8,504.8,426.6,504.8 M419.5,485.1
				l-0.8,4l-0.9,4.2l0,0.1l-0.1,0.3c-0.2,0.9-0.5,2.2-0.7,3.5l-0.4,1.8l-0.6,3c0,0.2-0.1,0.3-0.1,0.5c-0.8,3.6,0.6,7.3,1.7,10.3
				c0.1,0.4,0.3,0.7,0.4,1c0.8,2.1,1.7,4.1,2.7,6c0.2,0.4,0.4,0.8,0.6,1.2c0.5,1.2,1.3,2.4,2.9,3.3c1.2,0.8,2.7,1.2,4.4,1.2
				c1.5,0,2.9-0.3,4.1-0.5c3.8-0.8,7.4-2.6,10.3-5.2c0.8-0.7,1.9-1.7,2.6-3.2c0.5-0.9,1.9-3.6,0.7-6.3c-1.7-3.8-3.2-7-4.7-9.8
				c-0.8-1.6-1.6-2.8-2.6-3.8c-1.1-1.3-2.3-2.2-4.1-3.2c-2.6-1.5-5.1-2.9-7.5-4.2c-0.2-0.1-0.4-0.2-0.5-0.2l-3.7-2.1L419.5,485.1
				L419.5,485.1L419.5,485.1z"/>
			<path class="st1" d="M423.9,519.8c-1-2.2-2.2-4.6-3.1-7c-1.1-2.9-2.7-6.5-2-9.6c0.3-1.3,1.4-6.6,1.9-8.9c0.3-0.8,0.8-0.2,1,0.2
				c0.6,1,1,2.4,1,3.5c0,1.3-0.6,2.4-0.2,3.7c0.9,3.3,5.4,4,7.4,1.6c1-1.2,1.2-3,0.7-4.5c-0.6-1.6-2.4-2.3-3.6-3.4
				c-0.9-0.7-1.4-1.7-1.8-2.8c-0.1-0.3-0.2-0.8,0.1-0.9c0.2-0.1,0.5,0,0.7,0.1c2.5,1.4,5,2.8,7.5,4.2c1.4,0.7,2.4,1.5,3.4,2.6
				c0.9,0.9,1.6,2,2.1,3.1c1.6,3.1,3.2,6.5,4.6,9.7c0.5,1.2,0,2.5-0.6,3.7c-0.5,0.9-1.2,1.7-2,2.4c-2.5,2.2-5.6,3.8-8.9,4.5
				c-1.9,0.4-4.6,0.9-6.3-0.3C424.8,521.3,424.4,520.7,423.9,519.8L423.9,519.8z"/>
			<path class="st4" d="M425.3,502.1c-0.3-0.3-0.6-0.8-0.7-1.2c0-0.3,0-0.7,0.2-1c0-0.2,0.1-0.3,0.3-0.4c0.5-0.5,1.2-0.8,1.9-0.6
				c0.3,0,0.6,0.2,0.7,0.4l0.3,0.3c0.5,0.6,0.5,1.6-0.1,2.2C427.3,502.6,426.2,502.7,425.3,502.1L425.3,502.1z"/>
			<path class="st3" d="M311.9,523.2c-0.5,0-1,0-1.6-0.1c-3.6-0.4-7-1.8-10-3.9c-2.1-1.5-4.3-3.4-4.6-5.8c-0.3-1.4,0-2.4,0.4-3.5
				l0.5-1.2c0.8-2,1.6-4,2.6-5.9c0.2-0.3,0.3-0.7,0.5-1c1.4-2.6,3-6,5.9-7.5c0.1-0.1,0.3-0.2,0.5-0.3l2.7-1.6l1.6-0.9
				c1.2-0.7,2.3-1.4,3.1-1.8l0.1-0.1l0.1,0l5.6-3.3l1.4,6.2c0.1,0.2,0.1,0.3,0.1,0.5c0.7,2.8,1.3,5.6,1.9,8.4
				c0.4,1.8,0.5,3.2,0.4,4.7c-0.1,1.2-0.4,2.5-1,4.1c-1.1,2.9-2.5,6.2-4.1,10c-0.9,2.1-3.3,2.7-4.1,2.9
				C313.3,523.2,312.7,523.2,311.9,523.2L311.9,523.2L311.9,523.2z M310.8,498.9c-0.2,0.9,0.1,1.6,0.3,2c0.5,1,1.5,1.6,2.4,1.6h0.1
				c0.8,0,1.6-0.5,2.1-1.1L310.8,498.9L310.8,498.9z"/>
			<path class="st3" d="M318.3,488.6l1,4.4c0,0.1,0.1,0.2,0.1,0.3c0.7,2.8,1.3,5.6,1.9,8.4c0.4,1.5,0.5,2.7,0.3,4.2
				c-0.1,1.3-0.5,2.5-0.9,3.7c-1.3,3.3-2.7,6.7-4.1,9.9c-0.5,1.2-1.9,1.7-3.1,2c-0.5,0.1-1.1,0.2-1.7,0.2c-0.5,0-0.9,0-1.4-0.1
				c-3.4-0.4-6.6-1.7-9.3-3.6c-1.5-1.1-3.8-2.9-4-4.9c-0.2-1-0.1-1.7,0.4-2.7c1-2.3,1.9-4.8,3.1-7c1.4-2.8,3-6.4,5.8-7.9
				c0.1-0.1,0.3-0.2,0.5-0.3l2.7-1.6c1.7-1,3.6-2.1,4.7-2.7c0,0,0,0,0.1,0L318.3,488.6 M313.5,503.9c0,0,0.1,0,0.1,0
				c1.6-0.1,3-1.1,3.8-2.5c0.1-0.3,0.2-0.5,0.3-0.8l-7.5-3.7c-0.1,0.1-0.2,0.3-0.3,0.4C308.1,500.2,310.4,503.9,313.5,503.9
				 M320.3,484l-3.5,2l-3.7,2.2l-0.1,0l-0.2,0.1c-0.8,0.4-1.9,1.1-3.1,1.8l-1.6,0.9l-2.7,1.6c-0.1,0.1-0.3,0.2-0.4,0.2
				c-3.2,1.8-5,5.3-6.5,8.2c-0.2,0.3-0.3,0.7-0.5,1c-1,2-1.9,4-2.7,6c-0.2,0.4-0.3,0.8-0.5,1.2c-0.5,1.2-0.9,2.5-0.5,4.4
				c0.5,2.9,2.9,5.1,5.2,6.8c3.2,2.3,6.9,3.8,10.7,4.2c0.6,0.1,1.2,0.1,1.7,0.1c0.9,0,1.6-0.1,2.4-0.3c1-0.2,4-1,5.2-3.7
				c1.6-3.8,3-7.1,4.1-10c0.6-1.6,1-3.1,1.1-4.5c0.2-1.7,0.1-3.2-0.4-5.2c-0.7-3-1.3-5.7-1.9-8.4c0-0.2-0.1-0.4-0.2-0.5l-0.9-4.1
				L320.3,484L320.3,484L320.3,484z"/>
			<path class="st1" d="M297.6,510.5c1-2.3,1.9-4.8,3.1-7c1.4-2.8,3-6.4,5.8-7.9c1.2-0.7,5.8-3.4,7.8-4.6c0.8-0.3,0.7,0.4,0.5,0.9
				c-0.3,1.1-1.1,2.3-1.9,3.1c-0.9,0.9-2.2,1.2-3,2.3c-1.8,2.8,0.6,6.7,3.8,6.5c1.6-0.1,3-1.1,3.8-2.5c0.8-1.6,0.2-3.3,0-5
				c-0.1-1.2,0.3-2.2,0.9-3.2c0.1-0.2,0.5-0.7,0.7-0.6c0.2,0.1,0.3,0.4,0.4,0.6c0.7,2.8,1.3,5.6,1.9,8.4c0.4,1.5,0.5,2.7,0.3,4.2
				c-0.1,1.3-0.5,2.5-0.9,3.7c-1.3,3.3-2.7,6.7-4.1,9.9c-0.5,1.2-1.9,1.7-3.1,2c-1,0.2-2.1,0.2-3.1,0.1c-3.4-0.4-6.6-1.7-9.3-3.6
				c-1.5-1.1-3.8-2.9-4-4.9C297,512.2,297.1,511.5,297.6,510.5L297.6,510.5z"/>
			<path class="st4" d="M311.7,499.7c0-0.5,0.2-0.9,0.4-1.3c0.2-0.2,0.5-0.5,0.9-0.5c0.2-0.1,0.3-0.1,0.5-0.1c0.7,0,1.4,0.4,1.7,1
				c0.1,0.2,0.2,0.5,0.2,0.8v0.5c-0.2,0.8-0.9,1.4-1.7,1.4C312.6,501.6,311.7,500.8,311.7,499.7z"/>
			<path class="st3" d="M222,437.5c-1.4,0-2.7-0.7-3.6-1.3c-1.2-0.8-2-1.8-2.6-2.5c-2.2-2.9-3.5-6.3-4-10c-0.3-2.6-0.4-5.5,1.1-7.4
				c0.8-1.1,1.7-1.6,2.9-2.1l1.3-0.5c2-0.8,4-1.5,6.1-2.1c0.4-0.1,0.7-0.2,1.1-0.3c2.1-0.6,4.4-1.3,6.7-1.3c1,0,2,0.1,2.8,0.4
				c0.1,0,0.3,0.1,0.5,0.2l3,0.9l1.7,0.5c1.3,0.4,2.6,0.8,3.4,1l0.1,0l0.1,0l6.2,1.9l-3.6,5.3c-0.1,0.1-0.1,0.3-0.2,0.4
				c-1.6,2.4-3.2,4.8-4.8,7.2c-1,1.5-1.9,2.6-3.2,3.5c-0.9,0.8-2.1,1.4-3.7,2c-2.9,1.2-6.2,2.4-10.1,3.8
				C222.9,437.4,222.4,437.5,222,437.5L222,437.5L222,437.5z M233.9,417.5c-0.8,0.4-1.1,1.2-1.3,1.6c-0.3,1-0.1,2.1,0.6,2.8
				c0.5,0.5,1.3,0.8,2.1,0.8c0.1,0,0.2,0,0.2,0L233.9,417.5L233.9,417.5z"/>
			<path class="st3" d="M231,411.6c0.8,0,1.6,0.1,2.4,0.3c0.1,0,0.3,0.1,0.5,0.2l3,0.9c1.9,0.5,4,1.2,5.2,1.5c0,0,0,0,0.1,0l4.4,1.3
				l-2.5,3.7c0,0.1-0.1,0.2-0.2,0.3c-1.6,2.4-3.2,4.8-4.8,7.2c-0.9,1.3-1.6,2.2-2.8,3.1c-1,0.8-2.2,1.4-3.3,1.9
				c-3.2,1.3-6.7,2.6-10,3.8c-0.3,0.1-0.6,0.1-0.9,0.1c-1,0-1.9-0.5-2.8-1c-0.9-0.6-1.6-1.4-2.2-2.2c-2-2.7-3.3-5.9-3.7-9.3
				c-0.2-1.9-0.5-4.7,0.8-6.3c0.6-0.8,1.2-1.2,2.2-1.6c2.3-0.9,4.8-1.9,7.2-2.5C225.8,412.5,228.5,411.6,231,411.6 M235.2,424.2
				c0.4,0,0.9-0.1,1.3-0.2c0.3-0.1,0.6-0.2,0.8-0.4l-2.4-7.9l0,0c-0.2,0-0.4,0-0.5,0c-3.3,0.6-4.5,5-2.2,7.2
				C233,423.8,234.1,424.2,235.2,424.2 M231,408.6c-2.5,0-4.9,0.7-7.1,1.3c-0.4,0.1-0.7,0.2-1.1,0.3c-2.1,0.6-4.2,1.4-6.2,2.1
				c-0.4,0.2-0.8,0.3-1.3,0.5c-1.2,0.5-2.5,1.1-3.5,2.6c-1.8,2.3-1.7,5.6-1.4,8.4c0.5,3.9,1.9,7.6,4.3,10.7c0.6,0.8,1.6,2,2.9,2.9
				c1.6,1,3,1.5,4.4,1.5c0.6,0,1.3-0.1,1.9-0.3c3.9-1.4,7.2-2.6,10.1-3.8c1.6-0.7,3-1.4,4-2.3c1.4-1,2.4-2.1,3.5-3.8
				c1.7-2.5,3.3-4.9,4.8-7.2c0.1-0.2,0.2-0.3,0.3-0.5l2.4-3.5l2.3-3.4l-3.9-1.2l-4.1-1.2l-0.1,0l-0.3-0.1c-0.8-0.2-2.1-0.6-3.4-1
				l-1.8-0.5l-3-0.9c-0.2,0-0.3-0.1-0.4-0.1C233.2,408.8,232.1,408.6,231,408.6L231,408.6L231,408.6z"/>
			<path class="st1" d="M216.3,415.7c2.3-0.9,4.8-1.9,7.2-2.5c3-0.8,6.7-2.2,9.7-1.2c1.3,0.4,6.5,1.9,8.7,2.6c0.8,0.4,0.2,0.8-0.3,1
				c-1.1,0.5-2.4,0.8-3.6,0.7c-1.3-0.1-2.4-0.8-3.7-0.6c-3.3,0.6-4.5,5-2.2,7.2c1.1,1.1,2.9,1.5,4.4,1c1.7-0.5,2.5-2.1,3.6-3.4
				c0.8-0.9,1.8-1.3,2.9-1.5c0.3-0.1,0.8-0.1,0.9,0.1c0.1,0.2,0,0.5-0.2,0.7c-1.6,2.4-3.2,4.8-4.8,7.2c-0.9,1.3-1.6,2.2-2.8,3.1
				c-1,0.8-2.2,1.4-3.3,1.9c-3.2,1.3-6.7,2.6-10,3.8c-1.2,0.4-2.5-0.2-3.6-0.9c-0.9-0.6-1.6-1.4-2.2-2.2c-2-2.7-3.3-5.9-3.7-9.3
				c-0.2-1.9-0.5-4.7,0.8-6.3C214.7,416.4,215.3,416.1,216.3,415.7L216.3,415.7z"/>
			<path class="st4" d="M233.8,418.6c0.4-0.3,0.8-0.5,1.2-0.6c0.3,0,0.7,0,1,0.3c0.2,0.1,0.3,0.2,0.4,0.3c0.5,0.5,0.7,1.3,0.4,2
				c-0.1,0.3-0.2,0.5-0.4,0.7l-0.4,0.3c-0.7,0.4-1.6,0.3-2.2-0.3C233.1,420.6,233.1,419.4,233.8,418.6L233.8,418.6z"/>
			<path class="st3" d="M229.5,317.7c-0.5,0-1.1,0-1.6-0.1c-1.2-0.1-2.5-0.5-4-1.1c-2.9-1.2-6.1-2.6-9.9-4.3c-2.1-1-2.6-3.4-2.8-4.2
				c-0.3-1.4-0.2-2.7,0-3.6c0.5-3.6,1.9-7,4.1-9.9c1.6-2,3.5-4.2,5.9-4.5c0.4-0.1,0.7-0.1,1-0.1c1,0,1.8,0.3,2.5,0.6l1.2,0.5
				c1.9,0.9,3.9,1.7,5.8,2.8c0.3,0.2,0.7,0.4,1,0.5c2.6,1.4,5.9,3.2,7.4,6c0.1,0.1,0.1,0.3,0.2,0.5l1.5,2.7l0.9,1.6
				c0.7,1.2,1.3,2.4,1.7,3.1l0.1,0.1l0,0.1l3.1,5.7l-6.2,1.3c-0.2,0.1-0.3,0.1-0.5,0.1c-2.8,0.6-5.6,1.2-8.5,1.7
				C231.4,317.6,230.5,317.7,229.5,317.7L229.5,317.7z M234.8,305.3c-0.8,0-1.6,0.4-2.1,0.9c-0.5,0.5-0.8,1.2-0.8,1.8
				c0,0.8,0.4,1.6,1.1,2.2l2.5-4.9C235.2,305.4,235,305.3,234.8,305.3L234.8,305.3z"/>
			<path class="st3" d="M222.2,291.4c0.6,0,1.2,0.2,1.9,0.5c2.2,1,4.7,2,6.9,3.3c2.7,1.5,6.3,3.2,7.8,6c0.1,0.1,0.1,0.3,0.3,0.5
				l1.5,2.7c0.9,1.7,2,3.6,2.6,4.7c0,0,0,0,0,0.1l2.2,4.1l-4.4,0.9c-0.1,0-0.2,0.1-0.3,0.1c-2.8,0.6-5.6,1.2-8.5,1.7
				c-1,0.2-1.9,0.3-2.8,0.3c-0.5,0-0.9,0-1.4-0.1c-1.3-0.1-2.5-0.5-3.7-1c-3.2-1.3-6.6-2.8-9.8-4.3c-1.2-0.5-1.7-1.9-1.9-3.2
				c-0.2-1-0.2-2.1,0-3.1c0.4-3.3,1.8-6.5,3.9-9.2c1.2-1.5,3-3.7,5-3.9C221.8,291.4,222,291.4,222.2,291.4 M233.6,312.2l3.8-7.4
				c-0.1-0.1-0.3-0.2-0.4-0.4c-0.7-0.5-1.5-0.7-2.2-0.7c-2.3,0-4.5,1.9-4.4,4.3c0,1.6,1,3.1,2.4,3.8
				C233,312.1,233.3,312.2,233.6,312.2 M222.3,288.4c-0.4,0-0.8,0-1.2,0.1c-2.9,0.4-5.1,2.8-6.9,5c-2.4,3.1-3.9,6.8-4.4,10.6
				c-0.1,1-0.3,2.5,0.1,4.1c0.2,1,0.9,4,3.6,5.2c3.8,1.7,7,3.1,9.9,4.4c1.6,0.7,3.1,1.1,4.5,1.2c0.6,0.1,1.2,0.1,1.8,0.1
				c1.1,0,2.1-0.1,3.4-0.4c3-0.6,5.7-1.2,8.4-1.7c0.2,0,0.4-0.1,0.6-0.1l4.1-0.8l4-0.8l-1.9-3.5l-2.1-3.8l0-0.1l-0.1-0.2
				c-0.4-0.8-1.1-1.9-1.7-3.1l-0.9-1.6l-1.5-2.7c-0.1-0.1-0.2-0.3-0.2-0.4c-1.7-3.3-5.2-5.2-8-6.7c-0.3-0.2-0.7-0.4-1-0.5
				c-1.9-1.1-4-2-5.9-2.8c-0.4-0.2-0.8-0.4-1.2-0.5C224.6,288.7,223.5,288.4,222.3,288.4L222.3,288.4L222.3,288.4z"/>
			<path class="st1" d="M224.1,291.9c2.2,1,4.7,2,6.9,3.3c2.7,1.5,6.3,3.2,7.8,6c0.6,1.2,3.3,5.9,4.4,7.9c0.3,0.8-0.4,0.7-0.9,0.5
				c-1.1-0.4-2.3-1.1-3.1-2c-0.9-1-1.1-2.2-2.2-3c-2.8-1.9-6.7,0.5-6.6,3.6c0,1.6,1,3.1,2.4,3.8c1.6,0.8,3.3,0.2,4.9,0.2
				c1.2,0,2.2,0.4,3.1,1c0.2,0.1,0.7,0.5,0.6,0.7c-0.1,0.2-0.4,0.3-0.6,0.4c-2.8,0.6-5.6,1.2-8.5,1.7c-1.5,0.3-2.7,0.4-4.2,0.2
				c-1.3-0.1-2.5-0.5-3.7-1c-3.2-1.3-6.6-2.8-9.8-4.3c-1.2-0.5-1.7-1.9-1.9-3.2c-0.2-1-0.2-2.1,0-3.1c0.4-3.3,1.8-6.5,3.9-9.2
				c1.2-1.5,3-3.7,5-3.9C222.5,291.3,223.1,291.4,224.1,291.9L224.1,291.9z"/>
			<path class="st4" d="M234.6,306.2c0.5,0,0.9,0.2,1.3,0.4c0.2,0.2,0.4,0.5,0.5,0.9c0.1,0.2,0.1,0.3,0.1,0.5c0,0.7-0.4,1.4-1.1,1.7
				c-0.2,0.1-0.6,0.2-0.8,0.2l-0.5,0c-0.8-0.2-1.4-0.9-1.3-1.8C232.7,307.1,233.5,306.3,234.6,306.2L234.6,306.2z"/>
			<path class="st3" d="M313.7,239.6c-0.1-0.1-0.3-0.1-0.4-0.2c-2.5-1.5-4.9-3.1-7.3-4.6c-1.6-1-2.6-1.9-3.6-3.1
				c-0.8-0.9-1.5-2.1-2.1-3.6c-1.3-2.9-2.6-6.1-4.1-10c-0.8-2.1,0.5-4.3,0.9-5c0.7-1.2,1.8-2.1,2.5-2.6c2.8-2.2,6.2-3.7,9.9-4.3
				c0.9-0.1,2-0.3,3.1-0.3c1.8,0,3.2,0.4,4.2,1.2c1.2,0.8,1.7,1.6,2.2,2.8l0.5,1.3c0.8,2,1.6,4,2.3,6c0.1,0.4,0.2,0.7,0.3,1.1
				c0.9,2.8,2,6.4,1.1,9.5c0,0.1-0.1,0.3-0.1,0.5l-0.8,3l-0.5,1.7c-0.4,1.4-0.7,2.7-0.9,3.5l0,0.1l0,0.1l-1.7,6.3L313.7,239.6
				L313.7,239.6z M313.8,226.8c-0.8,0-1.5,0.3-1.9,0.8c-0.5,0.6-0.8,1.5-0.7,2.3l5.2-1.7C315.8,227.2,314.7,226.8,313.8,226.8
				L313.8,226.8z"/>
			<path class="st3" d="M312.5,207.5c1.3,0,2.5,0.2,3.4,0.9c0.8,0.5,1.2,1.1,1.6,2.1c0.9,2.3,2,4.7,2.7,7.2c0.9,3,2.4,6.7,1.5,9.7
				c0,0.1-0.1,0.3-0.1,0.5l-0.8,3c-0.5,1.9-1,4-1.4,5.2c0,0,0,0,0,0.1l-1.2,4.5l-3.8-2.4c-0.1,0-0.2-0.1-0.3-0.2
				c-2.4-1.5-4.9-3.1-7.3-4.6c-1.3-0.8-2.3-1.6-3.2-2.8c-0.8-1-1.5-2.1-2-3.3c-1.4-3.2-2.8-6.6-4.1-9.9c-0.5-1.2,0.1-2.5,0.8-3.6
				c0.5-0.9,1.3-1.6,2.1-2.2c2.6-2.1,5.8-3.4,9.1-3.9C310.5,207.6,311.5,207.5,312.5,207.5 M310.2,231.7l7.9-2.6
				c0-0.2,0-0.4-0.1-0.6c-0.4-2.1-2.4-3.2-4.3-3.2c-1.1,0-2.2,0.4-3,1.2c-1.1,1.1-1.4,2.9-0.9,4.4
				C309.9,231.2,310.1,231.5,310.2,231.7 M312.5,204.5c-1.2,0-2.4,0.1-3.4,0.3c-3.9,0.6-7.5,2.2-10.5,4.6c-0.8,0.6-2,1.6-2.8,3
				c-0.5,0.9-2.1,3.4-1,6.3c1.5,3.9,2.9,7.1,4.1,10c0.7,1.6,1.5,2.9,2.4,4c1.1,1.3,2.2,2.3,3.9,3.4c2.5,1.6,5,3.1,7.3,4.6
				c0.2,0.1,0.3,0.2,0.5,0.3l3.6,2.3l3.4,2.2l1-3.9l1.1-4.2l0-0.1l0.1-0.3c0.2-0.8,0.6-2.1,0.9-3.5l0.5-1.8l0.8-3
				c0-0.2,0.1-0.3,0.1-0.4c1-3.6-0.2-7.3-1.1-10.4c-0.1-0.4-0.2-0.7-0.3-1.1c-0.7-2.1-1.5-4.2-2.3-6.2c-0.2-0.4-0.3-0.8-0.5-1.2
				c-0.5-1.2-1.1-2.4-2.7-3.5C316.3,205,314.6,204.5,312.5,204.5L312.5,204.5L312.5,204.5z"/>
			<path class="st1" d="M317.5,210.5c0.9,2.3,2,4.7,2.7,7.2c0.9,3,2.4,6.7,1.5,9.7c-0.4,1.3-1.7,6.5-2.3,8.8c-0.4,0.8-0.8,0.2-1-0.3
				c-0.6-1-0.9-2.4-0.8-3.6c0-1.3,0.7-2.4,0.5-3.7c-0.7-3.3-5.1-4.3-7.3-2c-1.1,1.1-1.4,2.9-0.9,4.4c0.6,1.7,2.2,2.5,3.5,3.6
				c0.9,0.8,1.3,1.8,1.6,2.9c0.1,0.3,0.1,0.8-0.1,0.9c-0.2,0.1-0.5,0-0.7-0.2c-2.4-1.5-4.9-3.1-7.3-4.6c-1.3-0.8-2.3-1.6-3.2-2.8
				c-0.8-1-1.5-2.1-2-3.3c-1.4-3.2-2.8-6.6-4.1-9.9c-0.5-1.2,0.1-2.5,0.8-3.6c0.5-0.9,1.3-1.6,2.1-2.2c2.6-2.1,5.8-3.4,9.1-3.9
				c1.9-0.3,4.7-0.6,6.3,0.6C316.7,208.9,317.1,209.5,317.5,210.5L317.5,210.5z"/>
			<path class="st4" d="M315.1,228.1c0.3,0.3,0.5,0.8,0.6,1.2c0,0.3,0,0.7-0.2,1c-0.1,0.2-0.2,0.3-0.3,0.4c-0.5,0.5-1.3,0.7-1.9,0.5
				c-0.3-0.1-0.5-0.2-0.7-0.4l-0.3-0.3c-0.4-0.7-0.4-1.6,0.2-2.2C313.1,227.4,314.3,227.4,315.1,228.1L315.1,228.1z"/>
			<path class="st5" d="M434.4,328.4h-8.5l-5-11.3c-0.2-0.5-0.7-0.8-1.3-0.9c-26.4-6.9-42.6-4.1-49.8,8.4c-0.1,0.2-0.2,0.5-0.2,0.7
				v68.5c0,0.1,0,0.1,0,0.2v9.1c0,0.5,0.2,1,0.6,1.2c0.2,0.2,0.5,0.3,0.8,0.3c0.2,0,0.4,0,0.5-0.1l10.6-4.1c0.7-0.3,1.4-0.4,2.1-0.3
				l42.2,4.5v0c0.1,0,0.2,0,0.3,0c0.1,0,0.2,0,0.3,0c0.7-0.2,1.1-0.8,1.1-1.5v-67.4c0-1-0.2-2-0.6-3l-0.6-1.4h7.2v81.2H305.1v-81.2
				h6.1l-0.6,1.4c-0.4,1-0.6,2-0.6,3v67.4c0,0.7,0.5,1.3,1.1,1.5c0.1,0,0.2,0,0.3,0c0,0,0.1,0,0.2,0l0,0l42.2-4.5
				c0.7-0.1,1.4,0,2.1,0.3l10.6,4.1c0.2,0.1,0.4,0.1,0.5,0.1c0.3,0,0.6-0.1,0.8-0.3c0.4-0.3,0.6-0.7,0.6-1.2v-77.8
				c0-0.3-0.1-0.5-0.2-0.7c-7.1-12.6-23.4-15.3-49.9-8.4c0,0-0.1,0-0.1,0.1c-0.1,0-0.1,0.1-0.2,0.1s-0.1,0.1-0.2,0.1
				s-0.1,0.1-0.2,0.2c-0.1,0.1-0.1,0.1-0.1,0.2c0,0-0.1,0.1-0.1,0.1l-5,11.3h-7.4c-1.6,0-3,1.3-3,3v81.2c0,1.6,1.3,3,3,3h129.4
				c1.6,0,3-1.3,3-3v-81.2C437.4,329.7,436.1,328.4,434.4,328.4L434.4,328.4z M421,324.7l4,9.2c0.2,0.6,0.4,1.2,0.4,1.8v61.1
				l-4.4-8.9V324.7L421,324.7z M372.7,325.7c6.3-10.6,21.5-13,45.2-7v67.3c-21-7.8-36.2-6.7-45.2,3.4V325.7z M381.3,397.7l-8.5,3.3
				v-6.6c8-12.1,23-13.7,45.8-4.8l5.9,11.9l-39.7-4.2C383.6,397.1,382.4,397.2,381.3,397.7L381.3,397.7z M357,397.7
				c-1.1-0.4-2.3-0.6-3.5-0.5l-39.5,4.2l5.9-11.9c22.8-8.8,37.7-7.2,45.6,4.9v6.6L357,397.7L357,397.7z M365.5,325.7v63.7
				c-5.1-5.6-12.1-8.5-21-8.5c-6.9,0-15,1.7-24.2,5.1v-67.3C344,312.8,359.2,315.1,365.5,325.7L365.5,325.7z M317.3,387.9l-4.4,8.9
				v-61.1c0-0.6,0.1-1.2,0.4-1.8l4-9.2V387.9L317.3,387.9z"/>
			<path class="st6" d="M369.8,493.6c-71,0-128.8-57.8-128.8-128.8S298.7,236,369.8,236s128.8,57.8,128.8,128.8
				S440.8,493.6,369.8,493.6L369.8,493.6z M369.8,239c-69.4,0-125.8,56.4-125.8,125.8s56.4,125.8,125.8,125.8
				s125.8-56.4,125.8-125.8S439.1,239,369.8,239z"/>
			<path class="st6" d="M369.8,493.6c-55.5,0-100.7-57.8-100.7-128.8S314.2,236,369.8,236s100.7,57.8,100.7,128.8
				S425.3,493.6,369.8,493.6L369.8,493.6z M369.8,239c-53.9,0-97.7,56.4-97.7,125.8s43.8,125.8,97.7,125.8s97.7-56.4,97.7-125.8
				S423.6,239,369.8,239z"/>
			<rect x="368.2" y="237.5" class="st6" width="3" height="254.6"/>
			<rect x="242.4" y="363.3" class="st6" width="254.6" height="3"/>
			<path class="st6" d="M369.9,270.4c-21,0-42.2-4.8-63.4-14.5l1.2-2.7c41.5,19,83,19,123.3,0l1.3,2.7
				C411.8,265.5,391,270.4,369.9,270.4L369.9,270.4z"/>
			<path class="st6" d="M307.8,477.5l-1.2-2.7c42.4-19.3,84.7-19.3,125.8,0l-1.3,2.7C390.8,458.5,349.3,458.5,307.8,477.5
				L307.8,477.5z"/>
			<path class="st6" d="M370,317.1L370,317.1c-36.3,0-73.2-5.7-109.6-16.8l0.9-2.9c72.4,22.1,145.4,22.1,216.9,0l0.9,2.8
				C443,311.5,406.3,317.1,370,317.1L370,317.1z"/>
			<path class="st6" d="M261.4,433.6l-0.9-2.9C297,419.6,333.9,414,370.2,414h0c36.3,0,72.9,5.7,109,16.8l-0.9,2.8
				C406.8,411.5,333.8,411.5,261.4,433.6L261.4,433.6z"/>
			<path class="st6" d="M369.8,493.6c-15,0-29.1-13.6-39.5-38.2c-10.3-24.2-15.9-56.4-15.9-90.6s5.6-66.4,15.9-90.6
				c10.4-24.6,24.5-38.2,39.5-38.2s29.1,13.6,39.5,38.2c10.3,24.2,15.9,56.4,15.9,90.6s-5.6,66.4-15.9,90.6
				C398.8,480,384.8,493.6,369.8,493.6z M369.8,239c-13.8,0-26.8,12.9-36.8,36.4c-10.1,23.9-15.7,55.6-15.7,89.4s5.6,65.6,15.7,89.4
				c9.9,23.5,23,36.4,36.8,36.4s26.8-12.9,36.8-36.4c10.1-23.9,15.7-55.6,15.7-89.4s-5.6-65.6-15.7-89.4
				C396.6,251.9,383.5,239,369.8,239z"/>
		</g>
		<g>
			<path class="st0" d="M273.8,298.2l2.3,1.4c1.4,0.9,2.3,1.5,2.8,2.1c1,1.2,1.3,2.7,0.9,4.6c-0.2,1.1-0.7,2.3-1.4,3.5
				c-1.2,2-2.7,3.4-4.4,4c-0.8,0.3-1.6,0.4-2.4,0.2c-0.8-0.1-1.8-0.6-2.9-1.3c-0.5-0.3-1.2-0.8-2.3-1.4c-0.7-0.5-1.2-0.8-1.5-0.9
				c-0.5-0.3-0.9-0.5-1.2-0.5s-0.5,0-0.9,0.2c-0.5,0.3-1,0.3-1.3,0.1c-0.2-0.1-0.4-0.4-0.5-0.7c-0.1-0.3,0-0.7,0.1-1.1
				c0.3-0.8,0.7-1.7,1.3-2.6c0.6-1,1.2-1.9,1.8-2.5c0.6-0.6,1.1-0.7,1.7-0.4c0.3,0.2,0.4,0.4,0.5,0.7c0,0.1,0,0.3,0,0.8
				c0,0.3,0,0.5,0.2,0.7c0.2,0.2,0.6,0.5,1.1,0.8c0.6,0.3,1.7,1.1,3.5,2.2c1.1,0.7,2.1,0.9,3,0.6c0.8-0.2,1.4-0.7,1.9-1.5
				c0.3-0.5,0.5-1,0.5-1.6s0-1-0.2-1.4c-0.1-0.3-0.4-0.6-0.6-0.9c-0.3-0.2-0.7-0.5-1.2-0.9l-2.1-1.3c-1.6-0.9-2.6-1.5-2.9-1.6
				c-0.3-0.1-0.7,0-1,0.2c-0.4,0.2-0.6,0.4-0.8,0.4s-0.4,0-0.6-0.1c-0.4-0.2-0.5-0.6-0.4-1.2c0.1-0.6,0.5-1.4,1.1-2.4
				c0.6-1,1.1-1.6,1.5-2s0.9-0.4,1.2-0.2c0.2,0.1,0.3,0.2,0.3,0.4c0,0.1,0.1,0.4,0,0.9c0,0.5,0.1,0.8,0.3,1
				C271.6,296.8,272.4,297.3,273.8,298.2L273.8,298.2z"/>
			<path class="st0" d="M282.3,280.2l7.4-0.4c0.7,0,1.1-0.1,1.3-0.3c0.3-0.3,0.1-0.7-0.5-1.3c-0.7-0.7-1.1-1.1-1.5-1.2
				c-0.3-0.2-0.7-0.2-1,0c-0.3,0.1-0.6,0.1-0.8,0.1c-0.2,0-0.4-0.1-0.6-0.3c-0.4-0.4-0.4-1,0.1-1.8c0.2-0.3,0.6-0.8,1.2-1.4
				c0.8-0.8,1.4-1.3,1.8-1.5c0.6-0.3,1.1-0.3,1.6,0.1c0.3,0.3,0.4,0.8,0.2,1.4c-0.1,0.2-0.1,0.4-0.1,0.5c0,0.1,0,0.2,0.1,0.4
				c0.2,0.5,0.8,1.2,1.7,2.2l2.6,2.6c0.4,0.4,0.9,0.9,1.6,1.6c0.9,0.9,1.5,1.6,1.8,2.2c0.4,0.6,0.4,1.2,0,1.5
				c-0.2,0.2-0.3,0.3-0.5,0.3s-0.5,0.1-1.1,0.1l-8.9,0.4c-0.6,0-1,0.1-1.3,0.4c-0.3,0.3,0,0.9,0.8,1.8c0.7,0.7,1.3,1.2,1.6,1.4
				c0.4,0.2,0.7,0.2,1.1,0.1c0.5-0.2,0.9-0.1,1.2,0.2c0.7,0.7,0.3,1.9-1.3,3.5c-0.7,0.7-1.4,1.2-1.9,1.4c-0.6,0.2-1,0.1-1.4-0.2
				c-0.2-0.2-0.3-0.4-0.3-0.5c0-0.2,0-0.5,0.1-0.9c0.1-0.4,0-0.8-0.3-1.2c-0.6-0.8-1.5-1.8-2.8-3.1c-1.4-1.4-2.4-2.3-3.2-2.8
				c-0.3-0.2-0.5-0.3-0.7-0.3c-0.2,0-0.5,0-0.8,0.1c-0.4,0.1-0.6,0.2-0.8,0.1c-0.2,0-0.4-0.1-0.5-0.3c-0.5-0.5-0.4-1.3,0.4-2.2
				c0.2-0.3,0.8-0.9,1.5-1.6c0.4-0.4,0.8-0.7,1-0.8C281.4,280.3,281.8,280.3,282.3,280.2L282.3,280.2z"/>
			<path class="st0" d="M302,262.8c0.7-0.5,1.4-0.9,2.1-1.1c1-0.4,1.6-0.3,2,0.2c0.1,0.2,0.2,0.3,0.1,0.5c0,0.1-0.1,0.4-0.4,0.8
				c-0.2,0.3-0.2,0.8,0.1,1.3c0.2,0.5,0.8,1.5,1.8,2.9c1.6,2.4,2.6,3.8,3.1,4.3c0.2,0.1,0.3,0.2,0.5,0.3c0.2,0,0.4,0,0.7,0
				c0.5-0.1,0.9,0,1.1,0.4c0.3,0.5,0.2,1.1-0.5,1.8c-0.7,0.7-1.6,1.5-2.8,2.3c-2,1.4-3.3,1.6-3.8,0.9c-0.2-0.3-0.2-0.7,0.1-1.2
				c0.2-0.4,0.2-0.8,0-1.1c-0.4-0.8-1.3-2.3-2.8-4.6c-1.1-1.6-1.8-2.5-2.3-2.9c-0.3-0.2-0.6-0.3-1.1-0.3c-0.4,0-0.6,0-0.8-0.1
				c-0.2,0-0.3-0.2-0.4-0.3c-0.2-0.3-0.2-0.6,0-0.9c0.1-0.3,0.5-0.8,1.1-1.3C300.5,264,301.2,263.4,302,262.8L302,262.8z"/>
			<path class="st0" d="M328.8,253.1l-0.6,11.5c0,0.7-0.1,1.2-0.3,1.6c-0.2,0.3-0.4,0.6-0.8,0.8c-0.3,0.1-0.6,0.2-1,0.2
				c-0.2,0-0.5-0.1-0.6-0.2c-0.2-0.1-0.4-0.3-0.8-0.6l-8.2-7.4c-0.5-0.4-0.8-0.7-1.1-0.8c-0.3-0.1-0.6-0.1-1,0
				c-0.4,0.1-0.8-0.1-0.9-0.5c-0.2-0.5,0-1.1,0.5-1.7c0.6-0.6,1.6-1.2,2.9-1.8c1.4-0.6,2.5-0.9,3.2-1c0.8-0.1,1.2,0.1,1.4,0.6
				c0.1,0.3,0.1,0.6-0.2,1c-0.2,0.3-0.3,0.5-0.2,0.7c0.1,0.1,0.2,0.3,0.5,0.6l2.5,2.3c0.4,0.3,0.7,0.5,0.9,0.4
				c0.2-0.1,0.4-0.3,0.5-0.6c0.1-0.3,0.1-0.9,0.1-1.6c0-1.4,0-2.3,0-2.5c0-0.2,0-0.4-0.1-0.6c-0.1-0.2-0.4-0.4-0.7-0.4
				c-0.4,0-0.7-0.2-0.8-0.5c-0.4-0.8,0.6-1.7,2.7-2.6c1.1-0.5,1.9-0.7,2.4-0.7c0.5,0,0.9,0.2,1.1,0.6c0.2,0.5,0,0.9-0.5,1.2
				c-0.4,0.2-0.6,0.4-0.7,0.6C329,251.9,328.9,252.4,328.8,253.1L328.8,253.1z"/>
			<path class="st0" d="M342.5,245.6l5.6-1.1c1.1-0.2,2-0.4,2.5-0.5s1-0.3,1.5-0.6c0.1-0.1,0.3-0.1,0.4-0.1c0.4-0.1,0.8,0.1,1.1,0.4
				c0.6,0.6,1,1.3,1.2,2.3c0.1,0.5,0.1,0.9-0.1,1.2s-0.4,0.5-0.8,0.6c-0.2,0-0.4,0-0.6,0s-0.4-0.3-0.7-0.6c-0.4-0.4-0.9-0.7-1.4-0.8
				c-0.5-0.1-1.4,0-2.5,0.2c-0.8,0.2-1.3,0.4-1.5,0.7c-0.1,0.2-0.1,0.4,0,0.7c0,0.3,0.1,1,0.4,2.1c0.1,0.4,0.2,0.7,0.4,0.8
				c0.2,0.1,0.6,0.1,1.2-0.1c0.3-0.1,0.5-0.2,0.6-0.3c0.1-0.1,0.2-0.4,0.1-0.7c0-0.4,0-0.7,0-0.9s0.1-0.3,0.2-0.5
				c0.1-0.2,0.3-0.3,0.5-0.3c0.3-0.1,0.6,0,0.9,0.3c0.2,0.2,0.4,0.5,0.6,1.1s0.4,1.1,0.5,1.6c0.2,1.2,0.2,2.1,0,2.9
				c-0.1,0.4-0.4,0.7-0.8,0.8c-0.2,0.1-0.4,0-0.5-0.1s-0.2-0.4-0.4-0.8c-0.3-0.8-0.8-1.1-1.7-1c-0.3,0.1-0.5,0.2-0.6,0.4
				s-0.1,0.6,0,1.2c0.1,0.3,0.2,0.8,0.3,1.3c0.1,0.5,0.3,0.9,0.4,1.1c0.1,0.2,0.3,0.3,0.6,0.4c0.3,0,0.8,0,1.5-0.2
				c1.1-0.2,1.9-0.5,2.4-0.9s0.9-1,1.1-1.8c0.1-0.5,0.3-0.8,0.4-1c0.1-0.2,0.3-0.3,0.6-0.3c0.3-0.1,0.6,0,0.8,0.3s0.4,0.6,0.5,0.9
				c0.1,0.4,0.1,1,0,1.7s-0.3,1.3-0.5,1.9c-0.1,0.3-0.2,0.5-0.3,0.6c-0.1,0.1-0.2,0.2-0.4,0.2c-0.1,0-0.3,0-0.6,0
				c-0.5,0-1.1,0.1-1.9,0.2l-9.3,1.7c-0.4,0.1-0.7,0-0.9-0.1c-0.2-0.1-0.4-0.3-0.4-0.6c0-0.2,0-0.4,0-0.5c0.1-0.1,0.2-0.3,0.5-0.5
				c0.2-0.1,0.3-0.3,0.4-0.4c0.1-0.2,0.1-0.4,0.1-0.7c0-1.1-0.1-2.7-0.5-4.5c-0.5-2.8-1-4.6-1.5-5.2c-0.1-0.1-0.2-0.2-0.3-0.3
				c-0.1,0-0.3-0.1-0.6-0.1c-0.4-0.1-0.7-0.3-0.8-0.7c0-0.2,0-0.4,0.1-0.7s0.3-0.4,0.5-0.5C341.1,245.9,341.7,245.7,342.5,245.6
				L342.5,245.6z"/>
			<path class="st0" d="M373,251.4c-0.3,0-0.5,0.1-0.5,0.2s-0.1,0.6-0.2,1.2c0,0.9,0,1.7,0.1,2.2c0,0.1,0.1,0.3,0.1,0.4
				s0.2,0.2,0.4,0.3c0.4,0.3,0.6,0.6,0.6,1c0,0.5-0.3,0.8-1,1c-0.6,0.2-1.7,0.2-3.2,0.2c-2.8-0.1-4.1-0.7-4.1-1.7
				c0-0.2,0-0.3,0.1-0.4c0.1-0.1,0.3-0.2,0.6-0.4c0.3-0.2,0.6-0.4,0.7-0.7c0.1-0.3,0.2-0.8,0.3-1.5c0.1-0.5,0.1-2.4,0.3-5.7
				c0-1,0-1.7-0.1-2.1c-0.1-0.4-0.3-0.7-0.6-0.8c-0.3-0.2-0.5-0.3-0.6-0.5c-0.1-0.1-0.2-0.3-0.1-0.5c0-0.3,0.1-0.5,0.4-0.7
				c0.2-0.2,0.5-0.3,0.9-0.4c0.3-0.1,0.8-0.1,1.3-0.1c0.2,0,0.9,0.1,1.8,0.2c0.2,0,0.5,0,0.9,0.1c0.7,0,1.6,0,2.7,0
				c0.7,0,1.2,0,1.5,0c1.6,0.1,2.9,0.5,3.9,1.3c0.9,0.7,1.3,1.7,1.3,2.9c0,0.7-0.2,1.3-0.6,1.9s-0.8,0.9-1.4,1.2
				c-0.2,0.1-0.4,0.2-0.4,0.4c0,0.2,0.2,0.4,0.5,0.5c0.8,0.3,1.3,0.8,1.7,1.4c0.3,0.6,0.6,1.5,0.7,2.7c0,0.5,0.1,0.8,0.2,1
				c0.1,0.1,0.4,0.3,0.9,0.4c0.1,0,0.2,0.1,0.3,0.3s0.1,0.3,0.1,0.5c0,0.2-0.1,0.5-0.3,0.7c-0.2,0.2-0.4,0.4-0.7,0.5
				c-0.6,0.3-1.5,0.4-2.6,0.3c-1.5-0.1-2.5-0.5-3.1-1.3c-0.3-0.4-0.5-0.8-0.7-1.3c-0.2-0.5-0.4-1.4-0.6-2.5
				c-0.1-0.7-0.3-1.2-0.6-1.5S373.5,251.5,373,251.4L373,251.4z M372.6,245.7l-0.2,2.6c0,0,0,0.1,0,0.1c0,0.3,0,0.4,0.1,0.5
				s0.2,0.1,0.5,0.1c0.6,0,1.1-0.1,1.5-0.4s0.5-0.9,0.5-1.6c0-1.4-0.4-2.2-1.4-2.2c-0.3,0-0.5,0.1-0.6,0.2
				C372.7,245.1,372.7,245.4,372.6,245.7L372.6,245.7z"/>
			<path class="st0" d="M400.3,246.1c0.7,0.2,1.7,0.6,2.8,1.3c0.1,0.1,0.2,0.1,0.3,0.1c0.1,0,0.3,0,0.7,0c0.1,0,0.2,0,0.4,0
				c0.5,0.1,0.9,0.6,1.2,1.5s0.4,1.7,0.2,2.4c-0.1,0.4-0.3,0.7-0.6,0.9c-0.3,0.2-0.6,0.3-1,0.2c-0.3-0.1-0.5-0.2-0.7-0.4
				c-0.1-0.2-0.5-0.6-0.9-1.3c-0.6-1-1.4-1.7-2.2-1.9c-0.4-0.1-0.8-0.1-1,0c-0.3,0.1-0.5,0.4-0.6,0.7c-0.2,0.6,0.3,1.2,1.3,1.8
				c1.4,0.8,2.2,1.4,2.6,1.7c1.6,1.4,2.2,2.9,1.7,4.7c-0.4,1.5-1.4,2.6-2.9,3.3c-1.5,0.7-3.3,0.7-5.4,0.2c-0.9-0.2-1.9-0.6-2.8-1.1
				c-1-0.5-1.6-0.9-2-1.4c-0.3-0.3-0.5-0.9-0.5-1.8c-0.1-0.9,0-1.6,0.2-2.4c0.1-0.4,0.2-0.6,0.4-0.7c0.2-0.2,0.5-0.2,0.8-0.2
				s0.5,0.3,0.7,0.6c0.1,0.2,0.3,0.8,0.7,1.8c0.2,0.5,0.5,0.9,1,1.3c0.5,0.4,1.1,0.7,1.7,0.9c0.5,0.1,1,0.1,1.4,0s0.6-0.3,0.7-0.6
				c0.1-0.3,0-0.6-0.2-0.9c-0.2-0.3-0.6-0.6-1.1-0.9c-1-0.6-1.6-1.1-2.1-1.5s-0.9-0.9-1.2-1.4c-0.9-1.3-1.1-2.6-0.8-3.9
				c0.2-0.6,0.5-1.2,0.9-1.7c0.5-0.5,1-0.9,1.7-1.2C397,245.8,398.6,245.7,400.3,246.1L400.3,246.1z"/>
			<path class="st0" d="M419.9,253.1c0.8,0.3,1.5,0.6,2.2,1c0.9,0.5,1.2,1.1,1,1.7c-0.1,0.2-0.2,0.3-0.3,0.4
				c-0.1,0.1-0.4,0.1-0.9,0.2c-0.4,0-0.7,0.3-1,0.8c-0.3,0.5-0.7,1.5-1.3,3.1c-1,2.7-1.5,4.4-1.6,5c0,0.2,0,0.4,0.1,0.5
				s0.2,0.3,0.4,0.5c0.4,0.4,0.5,0.8,0.4,1.2c-0.2,0.6-0.8,0.8-1.7,0.7c-1-0.1-2.2-0.4-3.5-0.9c-2.3-0.8-3.3-1.7-3-2.5
				c0.1-0.3,0.4-0.5,1-0.6c0.4-0.1,0.7-0.3,0.9-0.6c0.4-0.8,1.1-2.4,2-5c0.6-1.8,1-3,1-3.5c0-0.3-0.1-0.7-0.4-1
				c-0.2-0.3-0.4-0.5-0.4-0.7c0-0.2,0-0.3,0-0.5c0.1-0.3,0.3-0.5,0.7-0.6c0.4-0.1,0.9-0.1,1.7,0.1
				C418.1,252.5,419,252.7,419.9,253.1L419.9,253.1z"/>
			<path class="st0" d="M434.4,261.1l4.9,3.2c0.5,0.3,1.1,0.6,1.6,0.7c0.2,0.1,0.4,0.2,0.5,0.2c0.5,0.3,0.8,1,0.7,2.1
				s-0.3,2-0.8,2.8c-0.4,0.5-0.8,0.8-1.3,0.9c-0.4,0-0.7-0.1-1.1-0.3c-0.3-0.2-0.6-0.5-0.7-0.8c-0.1-0.3-0.2-0.8-0.1-1.4
				c0-0.5,0-0.9,0-1.1c0-0.2-0.1-0.4-0.3-0.5c-0.2-0.1-0.5-0.2-0.7,0c-0.2,0.1-0.5,0.4-0.8,0.9l-3.4,5.2c-0.4,0.5-0.5,1-0.6,1.3
				c0,0.3,0,0.6,0.3,1c0.2,0.4,0.4,0.6,0.4,0.9c0,0.2,0,0.4-0.2,0.6c-0.3,0.5-0.8,0.6-1.6,0.4s-1.8-0.7-3-1.5
				c-1.5-1-2.6-1.9-3.2-2.6c-0.5-0.6-0.6-1.2-0.3-1.6c0.2-0.2,0.4-0.4,0.7-0.4c0.1,0,0.4,0.1,0.8,0.2c0.3,0.1,0.5,0.1,0.8-0.1
				s0.5-0.5,1-1c0.4-0.5,0.9-1.2,1.7-2.3c0.8-1.1,1.4-2,1.9-2.8c0.4-0.6,0.6-1,0.6-1.3s0-0.5-0.2-0.6c-0.2-0.2-0.6-0.1-1,0.1
				c-0.8,0.4-1.5,0.6-1.9,0.6c-0.5,0-0.9,0-1.2-0.2c-0.3-0.2-0.5-0.5-0.6-0.9s0-0.8,0.3-1.2c0.2-0.4,0.6-0.8,1.1-1.1s1-0.6,1.5-0.8
				c0.9-0.3,1.6-0.3,2,0c0.1,0.1,0.2,0.2,0.4,0.3c0.3,0.3,0.5,0.5,0.7,0.7C433.9,260.7,434.1,260.9,434.4,261.1L434.4,261.1z"/>
			<path class="st0" d="M455.4,288.4l-1.8,4.7c-0.2,0.4-0.2,0.8-0.2,0.9c0,0.2,0.1,0.4,0.2,0.6c0.3,0.4,0.3,0.8,0,1.1
				c-0.4,0.4-0.9,0.4-1.5,0.1c-0.6-0.3-1.5-1-2.5-2c-1.2-1.2-2-2.1-2.5-2.8c-0.2-0.3-0.3-0.6-0.3-0.9c0-0.3,0.1-0.5,0.3-0.8
				c0.2-0.2,0.3-0.2,0.5-0.2c0.2,0,0.4,0.1,0.7,0.2c0.3,0.2,0.6,0.1,0.8,0c0.4-0.4,0.4-0.8,0-1.3c-0.4-0.5-1-1.2-1.8-2
				c-0.7-0.7-1.1-1.1-1.4-1.1c-0.1,0-0.3,0-0.5,0.1c-0.2,0.1-0.4,0.2-0.5,0.3c-0.1,0.1-0.2,0.2-0.2,0.3c0,0.1,0.1,0.3,0.3,0.6
				c0.2,0.4,0.2,0.8-0.1,1c-0.6,0.6-1.7,0.2-3.2-1.3c-0.8-0.9-1.4-1.5-1.7-2.1c-0.2-0.5-0.2-0.9,0.2-1.3c0.2-0.2,0.3-0.2,0.5-0.2
				c0.2,0,0.4,0.1,0.7,0.2c0.5,0.2,0.9,0.3,1.3,0.3c0.4,0,1.1-0.2,2.2-0.6l3.6-1.3c1.3-0.5,2.3-0.9,2.8-1.1c0.6-0.3,1.1-0.7,1.5-1.1
				c0.5-0.4,0.8-0.7,1-0.9s0.5-0.2,0.9-0.2c0.7,0,1.4,0.3,1.9,0.9c0.5,0.5,0.8,1.3,0.9,2.2C457.6,281.7,456.9,284.4,455.4,288.4
				L455.4,288.4z M449,283.8l1.5,1.6c0.3,0.3,0.5,0.4,0.6,0.2c0.2-0.2,0.4-0.8,0.7-1.9c0.1-0.5,0.2-0.8,0.2-1s0-0.4-0.1-0.5
				c-0.2-0.2-0.5-0.2-1,0c-0.1,0-0.3,0.1-0.8,0.3c-0.8,0.3-1.2,0.5-1.3,0.6C448.7,283.4,448.8,283.6,449,283.8L449,283.8z"/>
			<path class="st0" d="M473.8,300.3c0.4,0.6,0.8,1.6,1.1,2.9c0,0.1,0.1,0.3,0.1,0.3c0,0.1,0.2,0.2,0.5,0.5c0.1,0.1,0.2,0.2,0.2,0.3
				c0.3,0.4,0.2,1.1-0.2,2c-0.4,0.9-0.9,1.5-1.5,1.9c-0.4,0.2-0.7,0.3-1.1,0.2c-0.4-0.1-0.7-0.2-0.8-0.5c-0.2-0.2-0.2-0.5-0.2-0.7
				s0.1-0.8,0.3-1.6c0.2-1.2,0.1-2.2-0.3-2.9c-0.2-0.4-0.5-0.6-0.8-0.7c-0.3-0.1-0.6-0.1-0.9,0.1c-0.5,0.3-0.7,1.1-0.4,2.2
				c0.4,1.5,0.7,2.6,0.7,3c0.2,2.1-0.5,3.6-2,4.6c-1.4,0.8-2.8,1-4.3,0.4c-1.6-0.6-2.9-1.8-4-3.6c-0.5-0.8-0.9-1.7-1.3-2.7
				s-0.5-1.8-0.5-2.4c0-0.4,0.3-1,0.8-1.6s1.1-1.2,1.8-1.6c0.3-0.2,0.6-0.3,0.8-0.2c0.3,0,0.5,0.2,0.7,0.4c0.1,0.2,0.2,0.5,0.1,0.9
				c-0.1,0.2-0.3,0.8-0.8,1.8c-0.2,0.5-0.3,1-0.2,1.7s0.3,1.2,0.6,1.8c0.3,0.5,0.6,0.8,1,1c0.4,0.2,0.7,0.2,0.9,0
				c0.2-0.2,0.4-0.4,0.5-0.8c0-0.3,0-0.8-0.2-1.4c-0.3-1.1-0.4-1.9-0.5-2.5s0-1.2,0.1-1.9c0.3-1.5,1-2.7,2.1-3.4
				c0.6-0.3,1.2-0.5,1.9-0.6c0.7-0.1,1.4,0,2,0.3C471.7,297.7,472.9,298.8,473.8,300.3L473.8,300.3z"/>
		</g>
		<g>
			<path class="st0" d="M261.7,411l-3.3-0.1c-0.6,0-1-0.1-1.2-0.1c-0.2-0.1-0.4-0.2-0.4-0.3c-0.1-0.1,0-0.3,0-0.5
				c0-0.1,0.3-0.4,0.7-0.9c0.4-0.5,0.8-0.9,1.1-1.3l2.5-2.7c0.4-0.4,0.5-0.7,0.4-0.9c-0.1-0.2-0.3-0.3-0.7-0.1
				c-0.8,0.3-1.6,0.6-2.3,0.9c-0.7,0.3-1.2,0.5-1.4,0.7c-0.1,0.1-0.2,0.2-0.3,0.3s-0.1,0.4-0.1,0.8c0,0.3-0.2,0.5-0.5,0.6
				c-0.8,0.3-1.6-0.5-2.4-2.5c-0.7-1.7-0.7-2.7,0.1-3c0.2-0.1,0.4-0.1,0.5,0s0.4,0.2,0.7,0.5c0.2,0.2,0.4,0.3,0.6,0.3
				c0.2,0,0.6-0.1,1.1-0.2c0.6-0.2,1.5-0.5,2.8-1c1.3-0.5,2.4-0.9,3.3-1.3c1.1-0.5,1.9-0.9,2.2-1.2c0.1-0.1,0.2-0.2,0.2-0.3
				c0-0.1,0.1-0.3,0.1-0.6c0-0.6,0.2-1,0.6-1.1c0.2-0.1,0.5-0.1,0.8,0s0.5,0.3,0.7,0.6c0.2,0.3,0.5,0.6,0.7,1.1
				c0.3,0.5,0.5,0.9,0.6,1.3c0.4,0.9,0.6,1.6,0.6,2c0,0.2,0,0.4-0.1,0.5c-0.1,0.1-0.3,0.4-0.5,0.8l-3.1,3.8
				c-0.3,0.4-0.5,0.7-0.6,0.8c-0.1,0.1-0.1,0.3,0,0.4c0.1,0.1,0.2,0.2,0.3,0.3c0.1,0.1,0.4,0.1,0.7,0.1l3.5,0.3c0.5,0,0.7,0,0.9,0.1
				c0.8,0,1.4,0.2,1.8,0.4c0.5,0.3,1,1,1.4,2.1c0.8,2,0.8,3.1-0.1,3.5c-0.2,0.1-0.4,0.1-0.5,0.1c-0.1,0-0.4-0.1-0.6-0.3
				c-0.4-0.2-0.8-0.3-1.3-0.2c-1,0.2-2.2,0.6-3.6,1.2c-1.8,0.7-3.3,1.5-4.6,2.2c-0.3,0.2-0.5,0.3-0.6,0.5s-0.2,0.4-0.3,0.9
				c-0.1,0.3-0.2,0.5-0.5,0.6c-0.5,0.2-1,0-1.4-0.5c-0.2-0.3-0.5-0.6-0.7-1c-0.2-0.4-0.4-0.9-0.8-1.7c-0.5-1.2-0.8-2.1-0.8-2.7
				c-0.1-0.7,0.1-1.2,0.6-1.4c0.2-0.1,0.3-0.1,0.5,0s0.4,0.2,0.9,0.4c0.2,0.1,0.6,0.1,1,0c0.5-0.1,1.2-0.4,2.2-0.8
				c0.6-0.2,0.9-0.4,1.1-0.5s0.2-0.3,0.1-0.4c-0.1-0.2-0.3-0.3-0.6-0.4C263.3,411,262.6,410.9,261.7,411L261.7,411z"/>
			<path class="st0" d="M281.9,438.1l-2.4,4.5c-0.2,0.4-0.3,0.7-0.4,0.9c0,0.2,0,0.4,0.2,0.7c0.3,0.5,0.2,0.9-0.2,1.1
				c-0.4,0.3-1,0.3-1.5-0.1s-1.4-1.2-2.3-2.4c-1-1.4-1.7-2.4-2.1-3.1c-0.2-0.3-0.2-0.7-0.2-1c0-0.3,0.2-0.5,0.4-0.7
				c0.2-0.1,0.4-0.2,0.5-0.2c0.2,0,0.4,0.1,0.7,0.3c0.3,0.2,0.6,0.2,0.8,0c0.4-0.3,0.5-0.7,0.2-1.3c-0.3-0.6-0.9-1.3-1.6-2.3
				c-0.6-0.8-1-1.2-1.2-1.3c-0.1,0-0.3,0-0.5,0s-0.4,0.1-0.5,0.2c-0.1,0.1-0.2,0.2-0.2,0.3s0.1,0.3,0.2,0.6c0.2,0.5,0.1,0.8-0.2,1
				c-0.7,0.5-1.7,0-3-1.8c-0.7-1-1.2-1.7-1.4-2.3c-0.2-0.5-0.1-0.9,0.4-1.3c0.2-0.1,0.4-0.2,0.5-0.2c0.2,0,0.4,0.1,0.7,0.3
				c0.4,0.3,0.9,0.4,1.3,0.5s1.1-0.1,2.3-0.4l3.8-0.8c1.4-0.3,2.4-0.6,3-0.8c0.6-0.2,1.2-0.5,1.7-0.9c0.5-0.4,0.9-0.6,1.1-0.7
				c0.2-0.1,0.5-0.1,0.9-0.1c0.7,0.1,1.4,0.5,1.8,1.1c0.5,0.6,0.7,1.4,0.6,2.3C285,431.8,284,434.3,281.9,438.1L281.9,438.1z
				 M276,432.7l1.3,1.8c0.2,0.3,0.4,0.4,0.6,0.3c0.2-0.1,0.5-0.8,1-1.8c0.2-0.5,0.3-0.8,0.4-1c0-0.2,0-0.4-0.1-0.5
				c-0.2-0.2-0.5-0.2-1-0.1c-0.1,0-0.4,0.1-0.8,0.2c-0.8,0.2-1.3,0.4-1.4,0.5C275.8,432.3,275.8,432.5,276,432.7L276,432.7z"/>
			<path class="st0" d="M297.8,450l-3.4,4c-0.8,0.9-1.2,1.5-1.2,1.9c-0.1,0.5,0.2,1,0.8,1.5c0.7,0.6,1.3,0.9,1.9,0.9
				c0.6,0,1.3-0.2,1.9-0.7c0.4-0.3,0.8-0.3,1.1-0.1c0.3,0.3,0.4,0.6,0.4,1s-0.2,0.9-0.6,1.3c-0.6,0.7-1.5,1.2-2.7,1.6
				c-0.4,0.1-0.7,0.2-0.9,0.2c-0.2,0-0.4-0.1-0.6-0.2l-1.7-1.9l-6-5.1c-0.4-0.3-0.6-0.6-0.7-0.9c-0.1-0.3-0.1-0.6,0.1-0.9
				c0.1-0.2,0.3-0.2,0.4-0.3s0.4,0,0.9,0.1c0.5,0.1,0.9,0.1,1.2-0.1c0.3-0.2,0.9-0.8,1.9-2c0.5-0.5,1.1-1.3,1.9-2.3
				c0.8-1,1.4-1.7,1.8-2.2c0.4-0.5,0.6-0.8,0.7-1s0-0.5-0.1-0.8c-0.3-0.5-0.4-0.8-0.5-0.9c-0.1-0.3,0-0.5,0.1-0.7
				c0.4-0.4,1-0.4,1.9-0.1c0.8,0.3,1.6,0.9,2.6,1.7c1.1,1,1.9,1.7,2.4,2.3c0.6,0.8,0.7,1.4,0.3,1.8c-0.2,0.2-0.3,0.3-0.5,0.3
				c-0.2,0-0.5-0.1-1-0.2c-0.3-0.1-0.6,0-0.8,0.1S298.4,449.3,297.8,450L297.8,450z"/>
			<path class="st0" d="M314.7,455.8c0.7,0.5,1.4,0.9,2,1.5c0.8,0.7,1,1.4,0.6,1.9c-0.1,0.2-0.2,0.3-0.4,0.3c-0.1,0-0.5,0-0.9,0
				c-0.4,0-0.8,0.2-1.2,0.6s-1,1.4-1.9,2.9c-1.5,2.5-2.4,4-2.6,4.7c-0.1,0.2-0.1,0.4-0.1,0.6s0.1,0.4,0.3,0.6
				c0.3,0.5,0.4,0.9,0.1,1.2c-0.3,0.5-0.9,0.6-1.8,0.3c-1-0.3-2.1-0.9-3.3-1.6c-2.1-1.3-2.9-2.3-2.4-3.1c0.2-0.3,0.5-0.4,1.1-0.4
				c0.4,0,0.8-0.1,1-0.5c0.6-0.7,1.6-2.2,3-4.6c1-1.6,1.6-2.8,1.7-3.3c0.1-0.3,0-0.7-0.2-1.1c-0.2-0.3-0.2-0.6-0.3-0.8
				s0-0.4,0.1-0.5c0.2-0.3,0.4-0.4,0.8-0.4s0.9,0.1,1.7,0.4C313,454.9,313.9,455.3,314.7,455.8L314.7,455.8z"/>
			<path class="st0" d="M334.4,468.7l-1.5,0.7c-0.6,0.2-0.9,0.5-1,0.8c-0.1,0.2-0.1,0.4-0.1,0.6s0.1,0.5,0.3,0.9l2.2,6.1
				c0.2,0.5,0.3,0.9,0.4,1.1s0.2,0.4,0.5,0.6c0.3,0.3,0.5,0.6,0.6,0.9c0.1,0.3,0.1,0.5-0.1,0.9c-0.3,0.8-1,0.9-2,0.5l-4-1.5
				c-0.3-0.1-0.5-0.2-0.6-0.4s-0.2-0.6-0.4-1.2c-0.3-1-0.7-2.1-1.2-3.4c-0.2-0.6-0.4-1-0.5-1.1c-0.1-0.2-0.2-0.3-0.4-0.4
				c-0.4-0.2-0.8,0.1-1,0.9c-0.2,0.6-0.3,1.1-0.1,1.5c0,0,0.1,0.2,0.2,0.4c0.3,0.4,0.4,0.8,0.2,1.1c-0.2,0.5-0.6,0.7-1.3,0.6
				c-0.7,0-1.8-0.3-3.2-0.9c-1.3-0.5-2.2-0.9-2.8-1.3c-0.2-0.2-0.4-0.4-0.5-0.6s-0.1-0.5,0-0.7c0.1-0.4,0.5-0.6,1-0.7
				c0.2,0,0.4-0.1,0.6-0.3s0.3-0.4,0.5-0.7c0.4-0.7,1-2,1.6-3.6c0.8-2,1.2-3.4,1.4-4.3c0.1-0.4,0.1-0.6,0-0.8s-0.2-0.4-0.4-0.6
				c-0.3-0.4-0.4-0.8-0.2-1.2c0.1-0.3,0.4-0.6,0.7-0.7c0.3-0.1,0.8-0.1,1.4,0c0.8,0.1,1.7,0.4,2.8,0.8c1.1,0.4,1.9,0.8,2.4,1.3
				c0.4,0.4,0.5,0.8,0.3,1.3c-0.1,0.2-0.2,0.4-0.3,0.5c-0.1,0.1-0.4,0.2-0.8,0.3c-0.1,0.1-0.3,0.2-0.6,0.6s-0.4,0.7-0.6,1
				c-0.2,0.6-0.2,0.9,0.1,1c0.2,0.1,0.4,0,0.5,0c0.2-0.1,0.6-0.3,1.3-0.7c0.8-0.5,1.2-0.8,1.3-1c0-0.1,0-0.3,0-0.6
				c0-0.2,0-0.4,0-0.5c0.2-0.5,0.6-0.8,1.3-0.8s1.6,0.3,3,0.8c1.1,0.4,1.9,0.8,2.3,1.1c0.6,0.4,0.8,0.9,0.5,1.5
				c-0.1,0.2-0.2,0.4-0.4,0.5c-0.2,0.1-0.4,0.2-0.6,0.2c-0.2,0-0.5-0.1-1.1-0.3c-0.4-0.1-0.7-0.2-0.9-0.2
				C335.1,468.5,334.8,468.6,334.4,468.7L334.4,468.7z"/>
			<path class="st0" d="M364.1,477.2l-0.3,2.8c-0.2,1.7-0.5,2.8-0.8,3.5c-0.7,1.4-2,2.3-3.9,2.8c-1.1,0.3-2.4,0.3-3.8,0.2
				c-2.4-0.3-4.3-1.1-5.6-2.4c-0.6-0.6-1-1.4-1.2-2.1c-0.2-0.8-0.2-1.9,0-3.3c0.1-0.5,0.2-1.5,0.4-2.7c0.1-0.9,0.2-1.5,0.2-1.8
				c0.1-0.6,0.1-1.1,0-1.3c-0.1-0.2-0.2-0.5-0.5-0.8c-0.5-0.4-0.7-0.8-0.6-1.2c0-0.3,0.2-0.5,0.5-0.7c0.3-0.2,0.6-0.3,1-0.3
				c0.8-0.1,1.8,0,3,0.1c1.2,0.1,2.2,0.4,3,0.6c0.8,0.3,1.1,0.7,1.1,1.4c0,0.3-0.2,0.5-0.4,0.7c-0.1,0-0.3,0.1-0.7,0.3
				c-0.2,0.1-0.4,0.2-0.6,0.5s-0.2,0.7-0.3,1.4c-0.1,0.6-0.3,2.1-0.6,4.2c-0.2,1.3,0,2.3,0.7,3.1c0.5,0.6,1.3,1,2.2,1.1
				c0.6,0.1,1.2,0,1.7-0.1s0.9-0.4,1.2-0.8c0.2-0.3,0.4-0.6,0.5-0.9s0.2-0.8,0.3-1.5l0.3-2.5c0.2-1.9,0.3-3,0.2-3.4
				c0-0.3-0.2-0.6-0.6-0.9c-0.4-0.2-0.6-0.4-0.7-0.6c-0.1-0.2-0.2-0.4-0.1-0.6c0-0.5,0.4-0.8,0.9-0.9c0.6-0.1,1.4-0.1,2.6,0
				c1.2,0.1,2,0.3,2.5,0.6s0.7,0.6,0.7,1.1c0,0.2-0.1,0.4-0.2,0.5c-0.1,0.1-0.4,0.2-0.8,0.4c-0.4,0.2-0.7,0.4-0.8,0.6
				C364.5,474.6,364.3,475.5,364.1,477.2L364.1,477.2z"/>
			<path class="st0" d="M380.4,470.5c0.8-0.1,1.8,0,3.1,0.3c0.1,0,0.3,0,0.4,0c0.1,0,0.3-0.1,0.7-0.3c0.1-0.1,0.2-0.1,0.4-0.1
				c0.5,0,1.1,0.3,1.7,1s1,1.5,1.1,2.2c0,0.4,0,0.8-0.3,1.1c-0.2,0.3-0.5,0.5-0.9,0.5c-0.3,0-0.5,0-0.8-0.1s-0.6-0.4-1.4-0.9
				c-1-0.8-1.9-1.1-2.8-1c-0.4,0-0.8,0.2-1,0.4s-0.3,0.5-0.3,0.8c0.1,0.6,0.7,1.1,1.9,1.3c1.6,0.3,2.6,0.5,3.1,0.7
				c2,0.7,3.1,2,3.3,3.8c0.2,1.6-0.4,3-1.5,4.1c-1.2,1.2-2.9,1.9-5.1,2.1c-1,0.1-2,0.1-3.1,0s-1.9-0.3-2.4-0.6
				c-0.4-0.2-0.8-0.7-1.1-1.5c-0.4-0.8-0.6-1.5-0.7-2.3c0-0.4,0-0.6,0.1-0.9c0.2-0.3,0.4-0.4,0.7-0.4c0.3,0,0.6,0.1,0.9,0.4
				c0.2,0.1,0.6,0.6,1.3,1.5c0.3,0.4,0.8,0.7,1.4,0.9c0.6,0.2,1.3,0.3,1.9,0.2c0.6-0.1,1-0.2,1.3-0.5c0.3-0.2,0.5-0.5,0.4-0.9
				c0-0.3-0.2-0.5-0.5-0.7c-0.3-0.2-0.8-0.4-1.4-0.5c-1.1-0.2-2-0.5-2.5-0.7s-1.2-0.5-1.7-0.9c-1.3-0.9-2-2.1-2.1-3.4
				c-0.1-0.7,0-1.3,0.3-2c0.2-0.7,0.6-1.2,1.1-1.8C377.1,471.4,378.6,470.8,380.4,470.5L380.4,470.5z"/>
			<path class="st0" d="M400.4,466.5c0.7-0.2,1.8-0.3,3.1-0.3c0.2,0,0.3,0,0.4,0c0.1,0,0.3-0.1,0.6-0.4c0.1-0.1,0.2-0.1,0.4-0.2
				c0.5-0.1,1.1,0.1,1.9,0.7c0.8,0.6,1.3,1.2,1.5,2c0.1,0.4,0.1,0.8,0,1.1c-0.2,0.4-0.4,0.6-0.8,0.7c-0.3,0.1-0.5,0.1-0.8,0
				s-0.7-0.3-1.5-0.7c-1.1-0.5-2.1-0.7-2.9-0.4c-0.4,0.1-0.7,0.3-0.9,0.6s-0.2,0.6-0.1,0.9c0.2,0.6,0.9,0.9,2.1,0.9
				c1.6,0,2.7,0,3.2,0.1c2.1,0.3,3.4,1.4,4,3.1c0.5,1.5,0.2,3-0.8,4.4c-1,1.4-2.5,2.4-4.6,3c-0.9,0.3-1.9,0.5-3,0.6
				s-1.9,0.1-2.5-0.1c-0.4-0.1-0.9-0.5-1.4-1.2s-0.9-1.4-1.1-2.1c-0.1-0.4-0.1-0.6,0-0.9c0.1-0.3,0.3-0.5,0.6-0.6
				c0.3-0.1,0.6,0,0.9,0.2c0.2,0.1,0.7,0.5,1.5,1.2c0.4,0.3,0.9,0.5,1.6,0.6c0.7,0.1,1.3,0,1.9-0.1c0.5-0.2,0.9-0.4,1.2-0.7
				s0.4-0.6,0.3-0.9c-0.1-0.3-0.3-0.5-0.6-0.6c-0.3-0.1-0.8-0.2-1.5-0.2c-1.1,0-2-0.1-2.6-0.2c-0.6-0.1-1.2-0.3-1.8-0.6
				c-1.5-0.7-2.4-1.6-2.8-2.9c-0.2-0.6-0.2-1.3-0.1-2c0.1-0.7,0.4-1.3,0.8-2C397.3,468,398.6,467.1,400.4,466.5L400.4,466.5z"/>
			<path class="st0" d="M430.3,461.9l4.1,3c0.4,0.3,0.7,0.4,0.9,0.5c0.2,0,0.4,0,0.7-0.1c0.5-0.2,0.9-0.1,1.1,0.3
				c0.3,0.5,0.2,1-0.3,1.5c-0.5,0.5-1.4,1.2-2.7,1.9c-1.5,0.8-2.6,1.4-3.4,1.7c-0.4,0.1-0.7,0.1-1,0.1s-0.5-0.2-0.7-0.5
				c-0.1-0.2-0.1-0.4-0.1-0.5c0-0.2,0.2-0.4,0.4-0.6c0.2-0.3,0.3-0.5,0.2-0.8c-0.2-0.4-0.7-0.5-1.2-0.3c-0.6,0.2-1.5,0.6-2.5,1.2
				c-0.9,0.5-1.4,0.8-1.5,1c-0.1,0.1-0.1,0.3-0.1,0.5c0,0.2,0.1,0.4,0.2,0.6c0.1,0.1,0.2,0.2,0.2,0.2s0.3,0,0.7-0.1
				c0.5-0.1,0.8,0,1,0.4c0.4,0.8-0.3,1.7-2.2,2.8c-1.1,0.6-1.9,1-2.5,1.1c-0.5,0.1-0.9-0.1-1.2-0.5c-0.1-0.2-0.1-0.4-0.1-0.6
				c0-0.2,0.2-0.4,0.4-0.6c0.3-0.4,0.5-0.8,0.6-1.2c0.1-0.4,0.1-1.2,0-2.3l-0.3-3.8c-0.1-1.4-0.2-2.4-0.4-3.1
				c-0.1-0.6-0.4-1.2-0.6-1.8c-0.3-0.6-0.5-1-0.6-1.2c-0.1-0.3,0-0.5,0.1-0.9c0.2-0.7,0.6-1.3,1.4-1.7c0.7-0.4,1.5-0.5,2.4-0.3
				C424.4,457.9,426.8,459.3,430.3,461.9L430.3,461.9z M424.1,466.9l1.9-1.1c0.4-0.2,0.5-0.4,0.4-0.5c-0.1-0.2-0.7-0.6-1.6-1.2
				c-0.4-0.3-0.8-0.4-1-0.5s-0.4-0.1-0.5,0c-0.2,0.1-0.3,0.5-0.2,1c0,0.1,0,0.4,0.1,0.9c0.1,0.8,0.2,1.3,0.3,1.4
				C423.6,467.1,423.8,467.1,424.1,466.9L424.1,466.9z"/>
			<path class="st0" d="M444.3,447.8l3.5,3.9c0.8,0.9,1.4,1.4,1.7,1.5c0.5,0.1,1-0.1,1.6-0.6c0.6-0.6,1-1.2,1.1-1.8
				c0.1-0.6,0-1.3-0.4-2c-0.2-0.4-0.2-0.8,0.1-1.1c0.3-0.3,0.7-0.4,1.1-0.2s0.8,0.4,1.2,0.8c0.6,0.7,1,1.7,1.2,2.9
				c0.1,0.4,0.1,0.7,0,0.9c0,0.2-0.1,0.4-0.3,0.5l-2.1,1.5l-5.9,5.3c-0.4,0.4-0.7,0.5-0.9,0.6c-0.4,0.1-0.6,0-0.9-0.3
				c-0.1-0.2-0.2-0.3-0.2-0.5c0-0.1,0.1-0.4,0.3-0.8c0.2-0.4,0.2-0.8,0-1.2c-0.1-0.3-0.7-1-1.7-2.1c-0.5-0.5-1.1-1.2-2-2.2
				c-0.9-0.9-1.5-1.6-1.9-2.1c-0.4-0.5-0.7-0.7-0.9-0.8c-0.2-0.1-0.5-0.1-0.8,0c-0.5,0.2-0.8,0.3-1,0.3c-0.3,0-0.5-0.1-0.7-0.2
				c-0.4-0.4-0.3-1,0.2-1.9c0.4-0.7,1.1-1.5,2.1-2.4c1.1-1,2-1.6,2.6-2c0.8-0.5,1.5-0.5,1.9,0c0.2,0.2,0.2,0.4,0.2,0.5
				c0,0.2-0.1,0.5-0.4,1c-0.1,0.3-0.1,0.6,0,0.9S443.6,447.1,444.3,447.8L444.3,447.8z"/>
			<path class="st0" d="M451.8,433l3.5-4.7c0.7-0.9,1.2-1.6,1.5-2.1c0.3-0.5,0.5-0.9,0.7-1.4c0.1-0.1,0.1-0.3,0.2-0.3
				c0.2-0.3,0.6-0.5,1.1-0.5c0.9,0,1.7,0.3,2.4,0.9c0.4,0.3,0.6,0.6,0.7,1c0.1,0.3,0,0.6-0.2,0.9c-0.1,0.2-0.3,0.3-0.5,0.4
				c-0.2,0-0.5,0.1-0.9,0c-0.6,0-1.1,0.1-1.6,0.4c-0.4,0.3-1,0.9-1.7,1.9c-0.5,0.7-0.7,1.2-0.6,1.5c0.1,0.2,0.2,0.4,0.4,0.5
				c0.2,0.2,0.8,0.6,1.7,1.3c0.4,0.3,0.6,0.4,0.8,0.3c0.2,0,0.5-0.3,0.9-0.9c0.2-0.2,0.3-0.5,0.3-0.7c0-0.2-0.1-0.4-0.4-0.6
				c-0.3-0.3-0.5-0.5-0.6-0.7s-0.1-0.3-0.1-0.5c0-0.2,0-0.4,0.2-0.6c0.2-0.2,0.5-0.4,0.8-0.4c0.3,0,0.7,0.1,1.2,0.4s1,0.5,1.5,0.9
				c1,0.7,1.6,1.5,2,2.2c0.2,0.4,0.2,0.8-0.1,1.1c-0.1,0.2-0.3,0.3-0.5,0.3s-0.4-0.1-0.8-0.3c-0.8-0.4-1.4-0.3-1.9,0.4
				c-0.2,0.3-0.3,0.5-0.2,0.8s0.4,0.5,0.8,0.9c0.3,0.2,0.7,0.5,1.1,0.8c0.5,0.3,0.8,0.5,1,0.5c0.2,0.1,0.5,0,0.7-0.2
				c0.3-0.2,0.6-0.6,1-1.2c0.7-0.9,1.1-1.7,1.2-2.3c0.1-0.6,0-1.3-0.4-2.1c-0.2-0.4-0.3-0.8-0.4-1s0-0.5,0.2-0.7
				c0.2-0.2,0.5-0.4,0.8-0.4s0.7,0.1,1,0.4c0.4,0.3,0.8,0.7,1.1,1.3c0.4,0.6,0.7,1.2,0.9,1.8c0.1,0.3,0.1,0.5,0.1,0.6
				c0,0.1,0,0.3-0.1,0.4c-0.1,0.1-0.2,0.3-0.4,0.5c-0.4,0.3-0.8,0.8-1.3,1.5l-5.8,7.7c-0.2,0.3-0.5,0.5-0.7,0.6
				c-0.3,0.1-0.5,0-0.8-0.2c-0.2-0.1-0.3-0.3-0.3-0.4s0-0.4,0.1-0.7c0.1-0.2,0.1-0.5,0-0.6c0-0.2-0.2-0.4-0.4-0.6
				c-0.8-0.9-1.9-1.9-3.5-3.1c-2.3-1.8-3.9-2.7-4.7-2.9c-0.2,0-0.3,0-0.4,0c-0.1,0-0.3,0.1-0.5,0.3c-0.4,0.3-0.7,0.3-1.1,0
				c-0.2-0.1-0.3-0.3-0.4-0.6c-0.1-0.2,0-0.5,0-0.7C451,434.2,451.3,433.7,451.8,433L451.8,433z"/>
			<path class="st0" d="M465.1,412c1-2.1,1.9-3,2.8-2.6c0.2,0.1,0.4,0.2,0.5,0.4s0.2,0.5,0.2,0.9c0,0.3,0.2,0.6,0.4,0.8
				c0.2,0.2,0.8,0.5,1.6,0.8c0.5,0.2,0.8,0.3,1,0.1c0.1-0.1,0.2-0.2,0.3-0.4s0.3-0.7,0.7-1.5c0.3-0.7,0.5-1.2,0.5-1.4
				c0-0.2-0.1-0.4-0.5-0.5c-0.9-0.4-1.6-0.7-2-0.7c-0.4-0.1-0.7,0-1,0.1c-0.3,0.2-0.5,0.4-0.7,0.4c-0.2,0-0.4,0-0.5-0.1
				c-0.3-0.1-0.5-0.4-0.6-0.7s-0.2-0.7-0.1-1c0.1-0.8,0.5-1.7,1-2.8c0.6-1.3,1.1-2.1,1.6-2.6s1-0.6,1.5-0.4c0.4,0.2,0.6,0.5,0.6,1.1
				c0,0.3,0,0.5,0.1,0.7c0.1,0.1,0.3,0.3,0.5,0.5c0.2,0.1,0.9,0.5,2.2,1.1c1.3,0.6,2.4,1.2,3.2,1.5c1.4,0.6,2.3,1,2.7,1
				c0.2,0,0.4,0,0.5,0s0.3-0.2,0.7-0.5c0.3-0.2,0.5-0.2,0.8-0.1c0.5,0.2,0.8,0.7,0.7,1.5s-0.4,1.8-1,3.2c-0.5,1.2-1.1,2.1-1.6,2.5
				c-0.5,0.4-0.9,0.5-1.4,0.3c-0.4-0.2-0.6-0.5-0.6-1c0-0.2-0.1-0.4-0.1-0.6s-0.2-0.3-0.5-0.5c-0.5-0.4-1.2-0.8-2-1.1
				c-0.4-0.2-0.7-0.2-0.9-0.2s-0.4,0.4-0.6,0.9c-0.6,1.2-0.8,2-0.9,2.5c0,0.2,0.1,0.3,0.4,0.5c0.3,0.2,0.7,0.4,1.2,0.6
				c0.8,0.4,1.4,0.5,1.8,0.4c0.1,0,0.4-0.1,0.7-0.4c0.3-0.2,0.6-0.2,1-0.1c0.5,0.2,0.7,0.7,0.6,1.5c0,0.8-0.4,1.8-0.9,3
				c-0.5,1.1-1,2-1.6,2.6c-0.2,0.3-0.5,0.4-0.8,0.5s-0.5,0.1-0.7,0c-0.2-0.1-0.4-0.2-0.5-0.4c-0.1-0.2-0.1-0.5-0.1-0.9
				c0-0.2-0.1-0.4-0.2-0.6c-0.1-0.1-0.3-0.3-0.7-0.5c-0.8-0.5-1.8-1-3.1-1.6c-0.2-0.1-0.5-0.2-0.9-0.4c-1.7-0.7-2.6-1.1-2.9-1.2
				c-0.6-0.3-1-0.4-1.2-0.4s-0.6,0.2-1,0.6c-0.3,0.2-0.6,0.3-0.9,0.2c-0.7-0.3-0.9-1.2-0.5-2.7C464.5,413.6,464.8,412.8,465.1,412
				L465.1,412z"/>
		</g>
	</g>
	<g>
		<path class="st0" d="M134.8,971.3v16.1c0,9.7-0.7,16.6-2.2,20.7c-3.1,8.5-10,14.7-20.6,18.5c-6.4,2.4-13.7,3.6-21.8,3.6
			c-14.1,0-25.4-3.4-33.9-10.1c-4.1-3.3-7-7.1-8.6-11.5s-2.4-10.7-2.4-18.9c0-3.2,0.1-8.5,0.3-15.8c0.1-5.2,0.2-8.6,0.2-10.3
			c0-3.7-0.3-6.2-0.8-7.6c-0.5-1.4-1.8-2.7-3.6-4c-2.9-1.9-4.4-4-4.4-6.3c0-1.7,0.7-3.2,2.2-4.5c1.5-1.3,3.4-2.2,5.8-2.7
			c4.8-1,10.6-1.5,17.2-1.5c7.3,0,13.3,0.5,18.1,1.7c4.7,1.1,7.1,3.5,7.1,7.2c0,1.8-0.7,3.3-2.1,4.4c-0.3,0.3-1.6,1-4,2
			c-1.4,0.6-2.4,1.7-2.9,3.4c-0.5,1.6-0.8,4.3-0.8,8s-0.2,12.1-0.5,24.8c-0.2,7.6,1.8,13.3,6.1,17.3c3.5,3.3,8.1,4.9,13.6,4.9
			c3.5,0,6.7-0.7,9.6-2s5-3.1,6.5-5.3c1.2-1.7,2-3.6,2.4-5.7s0.7-5,0.7-8.7v-14.5c-0.2-11.1-0.5-17.7-1-19.6
			c-0.4-1.9-1.8-3.4-4.3-4.5c-2.3-1-3.8-1.9-4.7-2.8c-0.8-0.8-1.2-1.9-1.2-3.1c0-2.6,1.6-4.6,4.7-5.8c3.2-1.2,8.2-1.8,15.2-1.8
			c7,0,11.8,0.6,14.8,1.8c3.1,1.2,4.6,3.1,4.6,5.7c0,1.3-0.3,2.2-0.8,2.8c-0.5,0.6-1.9,1.6-4.2,2.8c-2.3,1.3-3.7,2.7-4,4.3
			S134.9,961.6,134.8,971.3L134.8,971.3z"/>
		<path class="st0" d="M225.2,956.4l-7.1,6.8c-2.6,2.5-3.9,4.7-3.9,6.7c0,1.1,0.3,2.2,0.9,3.3s1.7,2.6,3.3,4.5l24.7,28.6
			c2.2,2.5,3.7,4.2,4.6,4.8c0.8,0.7,2.1,1.4,3.8,2.2c2.4,1,4.1,2.1,5.1,3.4c1,1.2,1.5,2.8,1.5,4.8c0,4.7-3.3,7-10,7h-25
			c-1.7,0-3.1-0.4-4.1-1.1c-1-0.8-2.6-2.6-4.7-5.5c-3.4-4.7-8-10.1-13.6-16.2c-2.5-2.6-4.2-4.4-5.2-5.2c-1-0.8-1.9-1.2-2.7-1.2
			c-2.6,0-3.8,2.4-3.8,7.2c0,3.9,0.8,6.6,2.5,8.1c0.3,0.2,1,0.7,2.1,1.5c2.4,1.5,3.6,3.5,3.6,5.7c0,2.9-1.9,5-5.8,6.2
			c-3.9,1.2-10.4,1.9-19.5,1.9c-8.1,0-14.1-0.5-17.8-1.4c-1.6-0.4-2.9-1.2-3.9-2.4s-1.5-2.5-1.5-3.9c0-2.3,1.3-4.3,4-6
			c1.2-0.8,2-1.7,2.5-2.6c0.5-1,1-2.5,1.4-4.8c0.9-5,1.3-12.6,1.3-23c0-12.3-0.5-21.1-1.4-26.2c-0.4-2.1-0.8-3.6-1.4-4.5
			c-0.6-0.9-1.7-1.8-3.2-2.7c-2.5-1.4-3.7-3.4-3.7-5.9c0-2.1,0.8-3.8,2.3-5.1c1.5-1.3,4-2.2,7.4-2.9c4.5-0.9,10.1-1.3,16.9-1.3
			s12,0.7,15.4,2c3,1.2,4.5,3.4,4.5,6.6c0,1.3-0.2,2.3-0.7,3.1s-1.7,1.9-3.6,3.4c-0.7,0.6-1.4,2.1-1.9,4.4c-0.6,2.3-0.9,4.6-0.9,6.9
			c0,3.7,0.8,5.5,2.5,5.5c1,0,2-0.4,2.9-1.3s2.9-3.1,5.7-6.6c3.3-4.1,4.9-6.9,4.9-8.4c0-0.8-0.4-2-1.2-3.6c-0.6-1.1-0.9-2.1-0.9-3
			c0-3.3,1.8-5.5,5.3-6.9c3.5-1.3,9.5-2,18-2c6.8,0,11.8,0.4,15.1,1.3c4,1.1,6,3.4,6,7c0,1.4-0.4,2.7-1.2,3.9
			c-0.8,1.2-1.9,2-3.1,2.3c-0.9,0.3-3.1,0.5-6.4,0.5c-2.3,0-4.1,0.3-5.2,0.8S227,954.6,225.2,956.4L225.2,956.4z"/>
		<path class="st0" d="M326,1001.1l-7.9,17.8c-1.4,3-2.5,5-3.3,6s-1.8,1.6-2.8,1.6s-1.8-0.4-2.6-1.2c-0.5-0.5-1.6-2.5-3.3-5.8
			c-1.7-3.3-3.2-6.3-4.3-8.9l-8.7-19.6c-1.2-2.7-2.4-4.1-3.8-4.1c-1.4,0-2.2,1.2-2.3,3.5c-0.3,5.2-0.5,10-0.5,14.4s0.2,7.7,0.7,9.3
			c0.3,1,0.7,1.7,1.2,2.1s1.9,1.2,4.1,2.4c1.5,0.8,2.2,2,2.2,3.9c0,4.9-6.3,7.4-18.9,7.4c-10.6,0-16-2.4-16-7.2
			c0-1.2,0.3-2.1,0.8-2.7s2-1.4,4.3-2.5c1.5-0.7,2.4-1.6,2.9-2.7c0.5-1.1,0.9-3.4,1.3-6.7c0.4-3.5,0.8-9.3,1.1-17.3
			c0.4-8,0.5-14.9,0.5-20.6c0-7.2-0.5-12-1.6-14.6c-0.4-0.9-0.9-1.5-1.4-2c-0.5-0.4-1.5-1-2.9-1.7c-3.1-1.5-4.7-3.4-4.7-5.8
			c0-1.5,0.6-3,1.8-4.2c1.2-1.3,2.7-2.2,4.6-2.7c1.9-0.6,4.5-1.1,7.8-1.5c3.2-0.4,6-0.6,8.2-0.6c5.6,0,9.6,0.5,12,1.4
			c1.1,0.4,2,1,2.7,1.8s1.6,2.3,2.8,4.6l13.7,25.3c1.5,2.8,2.5,4.5,3.1,5.1c0.6,0.6,1.4,0.9,2.4,0.9c0.9,0,1.7-0.3,2.3-1
			s1.5-1.9,2.4-3.7l9.3-18.2c1.1-2.3,1.9-3.8,2.2-4.5c2.2-4.4,4.3-7.3,6.4-8.8c2.7-1.9,7.6-2.8,14.6-2.8c12.5,0,18.7,2.8,18.7,8.5
			c0,1.3-0.2,2.3-0.7,3.1c-0.5,0.8-1.5,1.7-3,2.8c-2,1.5-3.3,3.8-3.8,6.7c-1,6.1-1.5,13.5-1.5,22.2c0,11.2,0.5,21.1,1.6,29.5
			c0.3,2.1,0.7,3.5,1.2,4.2c0.5,0.8,2,1.9,4.3,3.4c1.6,1.1,2.4,2.5,2.4,4.2c0,3.1-2,5.3-6.1,6.5c-2.1,0.7-4.3,1.2-6.7,1.4
			c-2.3,0.2-5.9,0.3-10.8,0.3c-7.4,0-13-0.5-16.6-1.6c-4-1.2-6.1-3.2-6.1-6.1c0-1.1,0.3-1.9,0.8-2.6c0.5-0.7,1.9-1.9,4.1-3.7
			c1.1-0.9,1.9-2.7,2.3-5.3c0.4-2.6,0.6-7.1,0.6-13.5c0-3.5-0.2-5.8-0.5-6.9s-1-1.7-2.1-1.7c-1.2,0-2.4,0.8-3.6,2.5
			C330.1,992.7,328.4,996,326,1001.1L326,1001.1z"/>
		<path class="st0" d="M425,997.3v-34.7c0-4.5-0.3-7.3-0.9-8.5s-2.3-2.2-5-2.9c-4-1.1-5.9-3.1-5.9-5.9c0-2,0.8-3.5,2.5-4.5
			c1.7-1.1,4.1-1.6,7.3-1.6c1.1,0,3.7,0.1,7.9,0.2h4c7.3,0,11.6-0.1,12.8-0.2c1.2-0.1,5.7-0.5,13.4-1.2c2.5-0.3,4.9-0.4,7-0.4
			c7.2,0,13.6,1.5,19.3,4.4c9.8,5.1,14.7,13.2,14.7,24.3c0,9-3.4,16.2-10.3,21.6c-6.5,5.1-14.3,7.6-23.5,7.6c-2.3,0-5.2-0.2-8.6-0.5
			c-1.8-0.1-2.9-0.2-3.4-0.2c-1.3,0-1.9,0.7-1.9,2.2v0.4l0.5,10.8c0.1,2.1,0.5,3.7,1.2,4.7c0.7,1,2.1,2.1,4.2,3.2
			c2.9,1.5,4.3,3.2,4.3,5c0,2.8-2.1,4.9-6.3,6.4c-4.2,1.5-10.2,2.2-18,2.2c-16.3,0-24.4-2.8-24.4-8.4c0-1.3,0.4-2.3,1.1-3
			s2.4-1.7,5-3c1.6-0.8,2.5-2,2.8-3.5C424.7,1010.3,424.9,1005.5,425,997.3L425,997.3z M454.7,954.2v22.4c0,1.7,0.4,2.8,1.1,3.1
			c1.3,0.6,2.9,0.9,4.8,0.9c2.9,0,5.4-0.8,7.3-2.4c2.9-2.3,4.3-6.2,4.3-11.8s-1.7-9.9-5-12.4c-2.1-1.6-4.7-2.4-7.7-2.4
			C456.3,951.7,454.7,952.5,454.7,954.2z"/>
		<path class="st0" d="M534.6,938.3h34.8c3.7-0.1,7.2-0.6,10.2-1.5c1.3-0.3,2.5-0.5,3.5-0.5c3.6,0,7,2.6,10.4,7.9
			c3.4,5.3,5,10.7,5,16.3c0,3.8-1.2,6.6-3.5,8.4c-1.8,1.3-3.9,2-6.3,2c-2.3,0-4.4-0.7-6.1-2c-1.7-1.3-3.4-3.4-5.1-6.4
			c-1.5-2.7-2.6-4.5-3.4-5.3s-1.8-1.2-3-1.2c-1.6,0-2.8,0.7-3.5,2c-0.7,1.4-1.1,3.6-1.1,6.7v37c0,3.8,0.4,6.5,1.2,8.2s2.3,3,4.5,4
			c2.4,1,4,2,4.8,2.9s1.3,2.1,1.3,3.7c0,3.2-2.2,5.5-6.4,7.1s-10.9,2.3-19.8,2.3c-10.9,0-19-0.9-24.3-2.7c-4.5-1.5-6.7-3.9-6.7-7.3
			c0-1.8,0.8-3.2,2.4-4.2c0.4-0.2,2-0.8,4.7-1.6c1.7-0.5,2.8-1.4,3.5-2.8c0.6-1.4,1.2-4,1.5-7.8c0.3-3.4,0.7-9,1-16.7
			s0.5-14.3,0.5-20c0-4-0.3-6.8-0.9-8.5c-0.6-1.7-1.6-2.5-3-2.5c-1.7,0-3.4,1.2-5,3.7c-3,4.5-5.4,7.5-7.3,8.9
			c-2.2,1.7-4.4,2.6-6.5,2.6c-2.4,0-4.3-0.9-5.9-2.7c-1.5-1.8-2.3-4.1-2.3-6.8s0.6-5.7,1.9-9s2.9-6.3,5-9.1c3.3-4.5,6.6-6.7,9.9-6.7
			c0.9,0,1.9,0.1,3,0.4c2.4,0.5,4.3,0.8,5.8,1S532.6,938.3,534.6,938.3L534.6,938.3z"/>
		<path class="st0" d="M651.8,936.5c6.4,0,13,1.4,20,4.2c9.1,3.7,16.3,10,21.5,18.8c4.8,8.1,7.2,16.6,7.2,25.3
			c0,9.8-2.9,18.7-8.7,26.6c-2.6,3.7-5.9,6.9-9.8,9.7c-3.9,2.8-7.9,4.8-12,5.9c-1.1,0.3-1.6,0.8-1.6,1.3c0,1.6,2,3,5.8,4.2
			c3.9,1.2,8.3,1.8,13.4,1.8c3.1,0,6-0.6,8.8-1.8c0.6-0.3,1.1-0.4,1.5-0.4c0.7,0,1.4,0.6,2.1,1.7s1.1,2.2,1.1,3.3
			c0,2.2-1.4,4.6-4.2,7.1c-2.9,2.6-6.6,4.6-11.1,6.1c-4.5,1.5-9.2,2.2-14.1,2.2c-5.7,0-11.8-1.1-18.5-3.2c-6.6-2.2-16.3-6.2-29-12.2
			c-2.2-1.1-4.8-2-7.6-2.7s-5.2-1.1-7-1.1c-0.6,0-1.4,0.1-2.2,0.2c-0.5,0-0.9,0.1-1.2,0.1c-0.8,0-1.5-0.4-2.1-1.1s-0.8-1.6-0.8-2.7
			c0-2,0.7-3.7,2-5.1c2.1-2.1,4.7-3.2,7.8-3.2l3.6,0.1c1,0,1.5-0.4,1.5-1.3c0-0.7-0.9-2-2.7-4.2c-4.1-4.7-7.1-9.1-9-13.2
			c-3-6.4-4.5-13.1-4.5-20.1c0-9.2,2.4-17.5,7.3-24.8c4.8-7.1,11.6-12.6,20.7-16.6C637.1,938.1,644.4,936.5,651.8,936.5L651.8,936.5
			z M645.2,955.6c-3.5,0-6.2,1.2-8.2,3.5c-2,2.3-2.9,5.6-2.9,9.7c0,4.9,0.8,10.2,2.3,16c1.6,5.8,3.7,11.2,6.4,16.3
			c3.6,6.9,8.1,10.3,13.5,10.3c3.5,0,6.3-1.2,8.6-3.6s3.4-5.5,3.4-9.2c0-4.9-0.9-10.5-2.6-16.8c-1.8-6.3-4-11.8-6.7-16.6
			C655.4,959,650.9,955.8,645.2,955.6L645.2,955.6z"/>
	</g>
</g>
</svg>
